<?xml version="1.0" encoding="UTF-8" standalone="no"?>
<!-- Creator: CorelDRAW 2019 (64-Bit) -->

<svg
   xml:space="preserve"
   width="130"
   height="41.99622"
   version="1.1"
   style="clip-rule:evenodd;fill-rule:evenodd;image-rendering:optimizeQuality;shape-rendering:geometricPrecision;text-rendering:geometricPrecision"
   viewBox="0 0 457.46284 147.78"
   id="svg23"
   sodipodi:docname="logo-full.svg"
   inkscape:version="1.1.2 (b8e25be833, 2022-02-05)"
   xmlns:inkscape="http://www.inkscape.org/namespaces/inkscape"
   xmlns:sodipodi="http://sodipodi.sourceforge.net/DTD/sodipodi-0.dtd"
   xmlns="http://www.w3.org/2000/svg"
   xmlns:svg="http://www.w3.org/2000/svg"><sodipodi:namedview
   id="namedview25"
   pagecolor="#ffffff"
   bordercolor="#666666"
   borderopacity="1.0"
   inkscape:pageshadow="2"
   inkscape:pageopacity="0.0"
   inkscape:pagecheckerboard="0"
   inkscape:document-units="mm"
   showgrid="false"
   inkscape:zoom="2.8935493"
   inkscape:cx="83.115916"
   inkscape:cy="47.692293"
   inkscape:window-width="1366"
   inkscape:window-height="705"
   inkscape:window-x="-8"
   inkscape:window-y="-8"
   inkscape:window-maximized="1"
   inkscape:current-layer="Layer_x0020_1"
   units="px" />
 <defs
   id="defs11">
  <style
   type="text/css"
   id="style2">
   <![CDATA[
    .fil0 {fill:#B95CC7;fill-rule:nonzero}
    .fil2 {fill:#D7A4DF;fill-rule:nonzero}
    .fil1 {fill:#FE0096;fill-rule:nonzero}
    .fil3 {fill:url(#id0)}
   ]]>
  </style>
  <linearGradient
   id="id0"
   gradientUnits="userSpaceOnUse"
   x1="102.69"
   y1="107.97"
   x2="34.509998"
   y2="107.97">
   <stop
   offset="0"
   style="stop-opacity:1; stop-color:#FF6FC4"
   id="stop4" />
   <stop
   offset="0.819608"
   style="stop-opacity:1; stop-color:#EB89D1"
   id="stop6" />
   <stop
   offset="1"
   style="stop-opacity:1; stop-color:#D7A4DF"
   id="stop8" />
  </linearGradient>
 </defs>
 <g
   id="Layer_x0020_1"
   inkscape:label="Layer 1"
   inkscape:groupmode="layer">
  <metadata
   id="CorelCorpID_0Corel-Layer" />
  <path
   class="fil0"
   d="m 138.90326,93.535078 c -0.33997,0 -0.61924,-0.0182 -0.84386,-0.0607 -0.23675,-0.0425 -0.43102,-0.13356 -0.56458,-0.24891 -0.13355,-0.11534 -0.23676,-0.27926 -0.27926,-0.50389 -0.0425,-0.21855 -0.0729,-0.51602 -0.0729,-0.8742 V 72.535896 h -3.99458 c -0.35818,0 -0.64957,-0.121418 -0.88633,-0.33997 -0.22463,-0.224623 -0.33997,-0.503883 -0.33997,-0.874207 0,-0.248906 0.0728,-0.455316 0.23676,-0.619231 0.16392,-0.145701 0.40067,-0.267118 0.67993,-0.370323 0.27925,-0.09106 0.58886,-0.145702 0.95919,-0.194269 0.37032,-0.03036 0.75277,-0.04249 1.15345,-0.04249 0.27925,0 0.58886,0 0.90454,0.01214 0.30962,0.01821 0.60708,0.01821 0.88634,0.03036 0.0304,0 0.0911,0 0.16391,0.01214 0.0729,0.01821 0.1457,0.01821 0.19427,0.01821 h 0.0425 V 48.137015 c 0,-0.27926 0.0607,-0.503883 0.19427,-0.679939 0.13355,-0.176055 0.27925,-0.309615 0.46138,-0.400678 0.17605,-0.07285 0.37031,-0.13356 0.57672,-0.176055 0.19427,-0.03036 0.37033,-0.0425 0.53424,-0.0425 h 9.59793 c 2.08227,0 4.03708,0.267119 5.8826,0.813498 1.83337,0.54638 3.44214,1.359878 4.82021,2.452637 1.37199,1.110971 2.4526,2.482991 3.26608,4.140342 0.81349,1.669493 1.21417,3.624318 1.21417,5.882686 0,1.329524 -0.20642,2.586196 -0.60708,3.757877 -0.41282,1.183823 -0.98954,2.276581 -1.71804,3.266135 -0.72242,0.989555 -1.58448,1.863761 -2.57403,2.616551 -0.98952,0.75279 -2.05799,1.37202 -3.22358,1.845549 0.84384,0.516025 1.60876,1.123113 2.27655,1.821264 0.66778,0.710294 1.24451,1.493438 1.69982,2.349433 0.46138,0.855994 0.80135,1.772697 1.05025,2.737968 0.2489,0.9592 0.37032,1.966966 0.37032,2.999015 0,2.13088 -0.33997,3.94607 -1.00775,5.45773 -0.66779,1.50557 -1.59662,2.7501 -2.79258,3.72751 -1.19594,0.95921 -2.62865,1.68771 -4.28597,2.14303 -1.65733,0.46138 -3.46036,0.67993 -5.40907,0.67993 h -8.55983 z m 0.67991,-20.999182 v 18.613332 h 6.62325 c 0.77099,0 1.55412,-0.0121 2.34939,-0.0425 0.80135,-0.0425 1.59662,-0.13356 2.41011,-0.27926 1.19595,-0.21855 2.26441,-0.58888 3.19324,-1.14133 0.92883,-0.54637 1.73017,-1.22632 2.36761,-2.02767 0.63744,-0.80136 1.14131,-1.71199 1.48127,-2.73797 0.33997,-1.01991 0.50388,-2.14302 0.50388,-3.33899 0,-1.40237 -0.20641,-2.659043 -0.61922,-3.788227 -0.41281,-1.110972 -1.0199,-2.051959 -1.80303,-2.841173 -0.78313,-0.783145 -1.74231,-1.372021 -2.86542,-1.803053 -1.12309,-0.41282 -2.37974,-0.61923 -3.76996,-0.61923 h -9.86505 z m 0,-23.245413 v 20.908123 h 9.07585 c 0.87419,0 1.74231,-0.01214 2.63473,-0.06071 0.87419,-0.03036 1.69981,-0.163914 2.45259,-0.382466 1.11096,-0.279261 2.11264,-0.722435 3.02933,-1.329523 0.91669,-0.607089 1.71804,-1.329524 2.37976,-2.173377 0.66779,-0.843852 1.16559,-1.772697 1.53591,-2.792606 0.37031,-1.019908 0.54637,-2.112668 0.54637,-3.266135 0,-1.760556 -0.32783,-3.314703 -0.95919,-4.656368 -0.63743,-1.347736 -1.50555,-2.482991 -2.60438,-3.417907 -1.11095,-0.916703 -2.39189,-1.608784 -3.86102,-2.100526 -1.46306,-0.485671 -3.04753,-0.722435 -4.73521,-0.722435 h -9.50687 z m 28.18064,24.162116 c 0,-0.382466 0.12142,-0.692081 0.35819,-0.916703 0.23675,-0.224623 0.53422,-0.327828 0.88633,-0.327828 0.23676,0 0.43102,0.0425 0.58887,0.115347 0.1457,0.09106 0.26711,0.20641 0.33997,0.339969 0.0728,0.133559 0.13355,0.279261 0.1639,0.431033 0.0182,0.163914 0.0304,0.297473 0.0304,0.41282 v 6.744752 c 0,0.801359 0.0728,1.535929 0.23676,2.203729 0.1457,0.6678 0.40068,1.25667 0.75278,1.74234 0.33997,0.48568 0.81349,0.87421 1.39022,1.15347 0.57672,0.27926 1.28701,0.43103 2.1612,0.43103 0.85598,0 1.58447,-0.1457 2.1612,-0.43103 0.57673,-0.27926 1.03811,-0.66779 1.37199,-1.15347 0.33997,-0.48567 0.57674,-1.08061 0.72243,-1.74234 0.1457,-0.6678 0.21856,-1.40237 0.21856,-2.203729 v -6.79939 c 0,-0.382466 0.1457,-0.692081 0.43102,-0.916703 0.27926,-0.224623 0.56458,-0.327828 0.8742,-0.327828 0.23675,0 0.43102,0.0425 0.58886,0.115347 0.1457,0.09106 0.26712,0.20641 0.33997,0.339969 0.0729,0.133559 0.12141,0.279261 0.1457,0.431033 0.0121,0.163914 0.0304,0.297473 0.0304,0.41282 v 7.157572 c 0,1.110969 -0.13357,2.130879 -0.41282,3.047579 -0.27925,0.91671 -0.69207,1.69985 -1.26879,2.34944 -0.57673,0.6678 -1.28702,1.1656 -2.16122,1.53593 -0.87419,0.37032 -1.87587,0.54638 -3.04753,0.54638 -1.16559,0 -2.18549,-0.17606 -3.05968,-0.54638 -0.87419,-0.37033 -1.58448,-0.87421 -2.14299,-1.53593 -0.57672,-0.64959 -0.98953,-1.43273 -1.26879,-2.34944 -0.27925,-0.9167 -0.43104,-1.93661 -0.43104,-3.047579 v -7.218281 z m 21.30851,14.448699 c -0.46139,0 -0.75279,-0.1032 -0.90455,-0.32175 -0.16392,-0.20641 -0.23677,-0.50389 -0.23677,-0.90457 V 73.45867 c 0,-0.382466 0.12142,-0.692081 0.35817,-0.916703 0.23676,-0.224623 0.53424,-0.327828 0.88634,-0.327828 0.2489,0 0.44317,0.06071 0.60708,0.194268 0.1457,0.13356 0.26712,0.309615 0.35818,0.534238 0.0911,0.224622 0.14571,0.48567 0.19426,0.783144 0.0304,0.297473 0.0425,0.588875 0.0425,0.904561 v 0.13356 c 0.90455,-0.710293 1.86373,-1.317382 2.88363,-1.803053 1.0199,-0.48567 2.13085,-0.740647 3.33894,-0.740647 0.98954,0 1.83338,0.163913 2.50117,0.473529 0.66778,0.327827 1.1838,0.771002 1.58448,1.329523 0.38245,0.564592 0.64957,1.214177 0.81348,1.966966 0.14569,0.75279 0.21854,1.566288 0.21854,2.440495 v 8.250325 c 0,0.35819 -0.1032,0.64959 -0.32782,0.87421 -0.21854,0.23676 -0.51601,0.35211 -0.87419,0.35211 -0.80134,0 -1.19595,-0.41282 -1.19595,-1.22632 v -8.474947 c 0,-0.534238 -0.0425,-1.019909 -0.13355,-1.481296 -0.10321,-0.443174 -0.2489,-0.82564 -0.47353,-1.153468 -0.22462,-0.327828 -0.53422,-0.576734 -0.90454,-0.752789 -0.37032,-0.176056 -0.84384,-0.267119 -1.39021,-0.267119 -0.56459,0 -1.1231,0.103205 -1.66948,0.309615 -0.54637,0.20641 -1.09273,0.461387 -1.60876,0.771002 -0.53423,0.309615 -1.0381,0.667798 -1.50556,1.062405 -0.47351,0.400678 -0.91669,0.801357 -1.3295,1.195964 v 8.784563 c 0,0.35819 -0.12141,0.64959 -0.33997,0.87421 -0.21855,0.23677 -0.51601,0.35211 -0.88632,0.35211 z m 34.54282,-1.22632 c 0,0.35819 -0.0729,0.64959 -0.21855,0.87421 -0.16391,0.23677 -0.46138,0.35211 -0.91669,0.35211 -0.3521,0 -0.64958,-0.11534 -0.88634,-0.35211 -0.2489,-0.22462 -0.37031,-0.51602 -0.37031,-0.87421 v -6.271217 c -0.50388,0.959197 -1.09275,1.894117 -1.79089,2.822957 -0.69814,0.92885 -1.45092,1.76056 -2.29476,2.48299 -0.84384,0.72244 -1.74232,1.31739 -2.70757,1.76056 -0.9774,0.46139 -1.99729,0.67994 -3.05968,0.67994 -1.55413,0 -2.78043,-0.41282 -3.70926,-1.25667 -0.92884,-0.82564 -1.40235,-2.03982 -1.40235,-3.63646 0,-1.11097 0.23675,-2.17338 0.69206,-3.162933 0.46139,-0.989553 1.08061,-1.906257 1.86373,-2.737968 0.771,-0.813498 1.65734,-1.554146 2.67723,-2.20373 1.00775,-0.637443 2.058,-1.183823 3.15074,-1.626997 1.09274,-0.431033 2.19156,-0.771003 3.29645,-1.019909 1.09274,-0.236764 2.13084,-0.352111 3.09003,-0.352111 h 0.22462 c 0.22462,0 0.47352,0 0.75278,0.01214 0.27925,0.01214 0.53423,0.06071 0.78313,0.13356 0.23676,0.09106 0.43102,0.236764 0.58887,0.431033 0.16392,0.194267 0.23676,0.473528 0.23676,0.825639 v 13.113106 z m -12.24479,-0.84385 c 0.84384,0 1.63911,-0.17605 2.39796,-0.51602 0.75278,-0.33997 1.45091,-0.80136 2.10049,-1.37809 0.64958,-0.57674 1.25666,-1.24453 1.80303,-1.99732 0.54638,-0.75279 1.05025,-1.535937 1.48127,-2.37979 0.43103,-0.825641 0.81349,-1.669493 1.12311,-2.5437 0.30961,-0.855995 0.55851,-1.687706 0.75277,-2.47085 -0.79527,0.01214 -1.65732,0.115347 -2.58616,0.297473 -0.92883,0.176056 -1.84552,0.431033 -2.76828,0.771003 -0.91669,0.339969 -1.80302,0.771002 -2.64688,1.268814 -0.84382,0.503883 -1.59661,1.062405 -2.24618,1.699847 -0.66779,0.637443 -1.1838,1.347736 -1.56627,2.130881 -0.40068,0.783142 -0.58886,1.626992 -0.58886,2.543702 0,0.8135 0.2489,1.45094 0.77098,1.89411 0.50388,0.46139 1.16559,0.67994 1.97909,0.67994 z m 22.51658,7.70395 c -0.33997,0 -0.61922,-0.0182 -0.84383,-0.0607 -0.23678,-0.0425 -0.43104,-0.13356 -0.5646,-0.24891 -0.13355,-0.11534 -0.23676,-0.27926 -0.27926,-0.50389 -0.0425,-0.21855 -0.0729,-0.51602 -0.0729,-0.8742 V 72.535896 h -3.99458 c -0.35211,0 -0.64958,-0.121418 -0.88634,-0.33997 -0.21854,-0.224623 -0.33997,-0.503883 -0.33997,-0.874207 0,-0.248906 0.0729,-0.455316 0.23677,-0.619231 0.16392,-0.145701 0.40068,-0.267118 0.67993,-0.370323 0.27926,-0.09106 0.58887,-0.145702 0.95918,-0.194269 0.37033,-0.03036 0.75278,-0.04249 1.15345,-0.04249 0.27927,0 0.58887,0 0.90455,0.01214 0.30962,0.01821 0.60709,0.01821 0.88634,0.03036 0.0304,0 0.0911,0 0.16392,0.01214 0.0729,0.01821 0.1457,0.01821 0.19425,0.01821 h 0.0425 V 48.137015 c 0,-0.27926 0.0607,-0.503883 0.19427,-0.679939 0.13356,-0.176055 0.27925,-0.309615 0.45531,-0.400678 0.17605,-0.07285 0.37032,-0.13356 0.57673,-0.176055 0.19426,-0.03036 0.37031,-0.0425 0.53423,-0.0425 h 9.59792 c 2.08229,0 4.03708,0.267119 5.8826,0.813498 1.83339,0.54638 3.44822,1.359878 4.82022,2.452637 1.372,1.110971 2.45259,2.482991 3.26608,4.140342 0.81349,1.669493 1.21416,3.624318 1.21416,5.882686 0,1.329524 -0.20641,2.586196 -0.60707,3.757877 -0.41282,1.183823 -0.98955,2.276581 -1.71197,3.266135 -0.72242,0.989555 -1.58448,1.863761 -2.57401,2.616551 -0.98955,0.75279 -2.05193,1.37202 -3.22359,1.845549 0.84383,0.516025 1.60875,1.123113 2.27654,1.821264 0.66779,0.710294 1.24451,1.493438 1.69982,2.349433 0.46139,0.855994 0.80135,1.772697 1.05025,2.737968 0.24891,0.9592 0.37032,1.966966 0.37032,2.999015 0,2.13088 -0.33997,3.94607 -1.00775,5.45773 -0.66779,1.50557 -1.59662,2.7501 -2.79257,3.72751 -1.19595,0.95921 -2.63473,1.68771 -4.28598,2.14303 -1.65733,0.46138 -3.46035,0.67993 -5.40909,0.67993 h -8.55982 z m 0.67993,-20.999182 v 18.613332 h 6.62324 c 0.77098,0 1.55412,-0.0121 2.34939,-0.0425 0.79528,-0.0425 1.59662,-0.13356 2.41011,-0.27926 1.19595,-0.21855 2.26441,-0.58888 3.19324,-1.14133 0.92883,-0.54637 1.73018,-1.22632 2.36761,-2.02767 0.63743,-0.80136 1.14131,-1.71199 1.48128,-2.73797 0.33996,-1.01991 0.50387,-2.14302 0.50387,-3.33899 0,-1.40237 -0.20641,-2.659043 -0.61922,-3.788227 -0.41281,-1.110972 -1.0199,-2.051959 -1.80303,-2.841173 -0.78314,-0.783145 -1.74232,-1.372021 -2.87148,-1.803053 -1.1231,-0.41282 -2.37976,-0.61923 -3.76996,-0.61923 h -9.86505 z m 0,-23.245413 v 20.908123 h 9.08191 c 0.87419,0 1.74232,-0.01214 2.62866,-0.06071 0.87419,-0.03036 1.69982,-0.163914 2.45259,-0.382466 1.11096,-0.279261 2.11263,-0.722435 3.02933,-1.329523 0.91669,-0.607089 1.71197,-1.329524 2.37975,-2.173377 0.66779,-0.843852 1.1656,-1.772697 1.53591,-2.792606 0.37033,-1.019908 0.54638,-2.112668 0.54638,-3.266135 0,-1.760556 -0.32175,-3.314703 -0.95919,-4.656368 -0.63744,-1.347736 -1.50556,-2.482991 -2.60437,-3.417907 -1.11095,-0.916703 -2.39797,-1.608784 -3.86103,-2.100526 -1.46306,-0.485671 -3.04754,-0.722435 -4.72914,-0.722435 h -9.50687 z m 43.81293,37.378425 c 0,0.35819 -0.0728,0.64959 -0.22462,0.87421 -0.16391,0.23677 -0.46138,0.35211 -0.91669,0.35211 -0.35817,0 -0.64957,-0.11534 -0.88632,-0.35211 -0.24892,-0.22462 -0.37033,-0.51602 -0.37033,-0.87421 V 80.39769 c -0.50387,0.959198 -1.09274,1.894118 -1.79088,2.822958 -0.69815,0.92885 -1.45092,1.76056 -2.28869,2.48299 -0.84385,0.72244 -1.74232,1.31739 -2.70758,1.76056 -0.9774,0.46139 -1.99729,0.67994 -3.05968,0.67994 -1.55413,0 -2.78043,-0.41282 -3.70926,-1.25667 -0.92883,-0.82564 -1.40235,-2.03982 -1.40235,-3.63646 0,-1.11097 0.23675,-2.17338 0.69814,-3.162933 0.45531,-0.989555 1.0806,-1.906258 1.86374,-2.737969 0.77098,-0.813499 1.65732,-1.554146 2.67722,-2.203731 1.00775,-0.637443 2.05193,-1.183822 3.15073,-1.626996 1.09275,-0.431033 2.18549,-0.771003 3.29646,-1.019909 1.09273,-0.236764 2.13084,-0.352111 3.09003,-0.352111 h 0.22462 c 0.21854,0 0.47352,0 0.75278,0.01214 0.27925,0.01214 0.53422,0.06071 0.78313,0.13356 0.23676,0.09106 0.43102,0.236764 0.58886,0.431032 0.16391,0.194269 0.23676,0.47353 0.23676,0.825641 V 86.662838 Z M 266.135,85.825058 c 0.84384,0 1.63911,-0.17605 2.39796,-0.51602 0.75278,-0.33997 1.45092,-0.80136 2.10049,-1.37809 0.64958,-0.57674 1.25666,-1.24454 1.80303,-1.99733 0.54637,-0.75278 1.05025,-1.535928 1.48129,-2.379781 0.43101,-0.82564 0.81348,-1.669493 1.12309,-2.5437 0.30961,-0.855995 0.56458,-1.687706 0.75278,-2.47085 -0.80135,0.01214 -1.65733,0.115347 -2.58617,0.297474 -0.92882,0.176055 -1.84552,0.431032 -2.76828,0.771001 -0.91669,0.33997 -1.80302,0.771003 -2.64686,1.268815 -0.84384,0.503884 -1.59662,1.062405 -2.2462,1.699848 -0.66778,0.637442 -1.1838,1.347736 -1.56626,2.130879 -0.40068,0.783144 -0.58887,1.626994 -0.58887,2.543704 0,0.8135 0.2489,1.45094 0.77098,1.89411 0.50389,0.46139 1.1656,0.67994 1.97909,0.67994 z m 21.42384,-2.23408 c -0.0121,0.33997 0.13356,0.63744 0.46138,0.90456 0.32782,0.27926 0.74063,0.51602 1.24452,0.71029 0.48566,0.19427 1.0381,0.35818 1.62697,0.46139 0.57672,0.1032 1.12309,0.16391 1.63911,0.16391 0.82562,0 1.61483,-0.1457 2.34939,-0.43103 0.74064,-0.27926 1.39022,-0.69208 1.93659,-1.21418 0.54637,-0.51602 0.98954,-1.12311 1.29915,-1.8334 0.30961,-0.69816 0.47352,-1.481299 0.47352,-2.319081 0,-0.855995 -0.14569,-1.626997 -0.44316,-2.306936 -0.30962,-0.667797 -0.71028,-1.244531 -1.2263,-1.71806 -0.51603,-0.455316 -1.14131,-0.82564 -1.83338,-1.080617 -0.71029,-0.248907 -1.48127,-0.382466 -2.30691,-0.382466 -0.92883,0 -1.84551,0.176056 -2.73793,0.534238 -0.90455,0.370324 -1.73017,0.801357 -2.48295,1.287027 v 7.230425 z m 0,-9.907685 c 0.81348,-0.443175 1.68767,-0.801357 2.58616,-1.080618 0.90455,-0.267119 1.83337,-0.400678 2.78042,-0.400678 1.21416,0 2.31905,0.176056 3.31465,0.546379 0.98955,0.370324 1.83339,0.88635 2.54367,1.566288 0.69814,0.679939 1.24452,1.505579 1.63911,2.482992 0.38246,0.977412 0.57673,2.088384 0.57673,3.326844 0,1.153468 -0.22462,2.215868 -0.64958,3.193288 -0.44316,0.98955 -1.05024,1.8334 -1.80301,2.54369 -0.77101,0.72244 -1.65734,1.26882 -2.65902,1.6695 -1.01989,0.40068 -2.08835,0.60709 -3.21145,0.60709 -0.35817,0 -0.78314,-0.0304 -1.28701,-0.10321 -0.51602,-0.0729 -1.05025,-0.17605 -1.59662,-0.32783 -0.54638,-0.13356 -1.09275,-0.32782 -1.63912,-0.54638 -0.54637,-0.22462 -1.0381,-0.48567 -1.46305,-0.80135 -0.43104,-0.30962 -0.78314,-0.6678 -1.06239,-1.09276 -0.27927,-0.41282 -0.41282,-0.87421 -0.41282,-1.39023 V 48.816954 c 0,-0.370324 0.1032,-0.679939 0.29747,-0.916704 0.19426,-0.218551 0.48566,-0.339969 0.88633,-0.339969 0.46139,0 0.771,0.13356 0.92884,0.400679 0.16391,0.27926 0.23676,0.564592 0.23676,0.855994 v 24.854197 z m 28.02279,13.088825 c -0.66778,0.37032 -1.372,0.69208 -2.13085,0.9592 -0.77099,0.27926 -1.55412,0.41282 -2.34939,0.41282 -1.16559,0 -2.11263,-0.22462 -2.82293,-0.64959 -0.72242,-0.43103 -1.26879,-1.00776 -1.66947,-1.71199 -0.40067,-0.71029 -0.67992,-1.52379 -0.81348,-2.42835 -0.13356,-0.90456 -0.20641,-1.82126 -0.20641,-2.750108 v -7.157572 c 0,-0.382466 0.12142,-0.692081 0.35817,-0.916703 0.21857,-0.224623 0.51603,-0.327828 0.8742,-0.327828 0.48566,0 0.80135,0.103205 0.92884,0.327828 0.13355,0.224622 0.19427,0.534237 0.19427,0.916703 v 7.218281 c 0,0.588879 0.0425,1.195959 0.11533,1.803049 0.0728,0.60709 0.22463,1.16561 0.46138,1.65735 0.22463,0.48567 0.54638,0.90457 0.9592,1.21418 0.41281,0.32783 0.95918,0.48567 1.62697,0.48567 0.80134,0 1.56627,-0.16391 2.31904,-0.48567 0.74065,-0.30961 1.46306,-0.69815 2.1612,-1.14133 v -10.75153 c 0,-0.339969 0.11536,-0.61923 0.35211,-0.874207 0.23676,-0.248906 0.51601,-0.370324 0.85598,-0.370324 0.48567,0 0.80134,0.103205 0.94704,0.327828 0.13357,0.224622 0.20641,0.534237 0.20641,0.916703 v 9.27024 c 0.13356,-0.0729 0.26712,-0.13356 0.40068,-0.19427 0.13356,-0.0607 0.2489,-0.1032 0.38246,-0.13356 0.0425,-0.0121 0.085,-0.0121 0.16391,0 0.0729,0.0121 0.11535,0.0304 0.1457,0.0425 0.16391,0.10321 0.32782,0.24891 0.48566,0.44318 0.1457,0.19426 0.22462,0.41282 0.22462,0.64958 0,0.16391 -0.0607,0.32783 -0.17605,0.48567 -0.11535,0.16391 -0.26712,0.32783 -0.45532,0.48567 -0.19426,0.16392 -0.38245,0.32783 -0.58885,0.45532 -0.22463,0.1457 -0.41282,0.27926 -0.57674,0.38246 v 7.37613 c 0,1.37202 -0.40066,2.45263 -1.18381,3.235783 -0.78312,0.78315 -1.86373,1.16561 -3.22358,1.16561 -0.33997,0 -0.61922,-0.0729 -0.82563,-0.20641 -0.22462,-0.1457 -0.32783,-0.44318 -0.32783,-0.88635 0,-0.24891 0.0425,-0.4614 0.14571,-0.607093 0.0911,-0.16392 0.2064,-0.26713 0.37031,-0.33998 0.1457,-0.0728 0.30961,-0.13355 0.50388,-0.1457 0.17605,-0.0182 0.33997,-0.0182 0.48567,0 h 0.0728 c 0.40067,0 0.69207,-0.1032 0.91669,-0.30961 0.2064,-0.22462 0.37032,-0.48567 0.47352,-0.8135 0.1032,-0.33997 0.16392,-0.69815 0.19427,-1.09275 0.0121,-0.40068 0.0303,-0.78315 0.0303,-1.14133 v -4.82029 z"
   id="path14"
   style="stroke-width:0.607084" />
  <path
   class="fil1"
   d="m 375.59752,53.46725 c 0,0.279262 -0.0911,0.534238 -0.27925,0.783145 -0.19427,0.248906 -0.47352,0.370324 -0.81349,0.370324 -0.19427,0 -0.35818,-0.04249 -0.51602,-0.13356 -0.16391,-0.08499 -0.29746,-0.176055 -0.41281,-0.248906 -0.54637,-0.370324 -1.14131,-0.783144 -1.76053,-1.214177 -0.63743,-0.431032 -1.2688,-0.855994 -1.93658,-1.268815 -0.66779,-0.400678 -1.31737,-0.783143 -1.96694,-1.123113 -0.66779,-0.339969 -1.28701,-0.61923 -1.86374,-0.82564 -0.98954,-0.309615 -2.07014,-0.564592 -3.23573,-0.771002 -1.16559,-0.194268 -2.27655,-0.297473 -3.35715,-0.297473 -1.96694,0 -3.86103,0.248906 -5.66405,0.752789 -1.80303,0.516025 -3.49072,1.226319 -5.07519,2.161235 -1.58447,0.928845 -3.02933,2.039817 -4.31633,3.326844 -1.28702,1.287027 -2.39797,2.737969 -3.31467,4.316398 -0.92882,1.5845 -1.6391,3.284348 -2.14298,5.099542 -0.50388,1.821265 -0.75279,3.70931 -0.75279,5.676276 0,1.92447 0.26712,3.788231 0.78315,5.573071 0.516,1.803052 1.2445,3.490758 2.17334,5.069188 0.92883,1.584502 2.03978,3.017232 3.33893,4.316402 1.29915,1.29917 2.73793,2.42228 4.31634,3.35719 1.58448,0.92885 3.26609,1.65736 5.07518,2.17338 1.80304,0.51603 3.66677,0.77101 5.57299,0.77101 5.16019,0 9.71328,-1.63915 13.6593,-4.91136 0.0607,-0.0425 0.1457,-0.11534 0.2489,-0.19426 0.10321,-0.0728 0.2064,-0.16391 0.32783,-0.23676 0.12141,-0.0729 0.23675,-0.13357 0.35817,-0.19427 0.11535,-0.0607 0.23676,-0.0911 0.33997,-0.0911 0.38245,0 0.66779,0.12142 0.85598,0.33997 0.19427,0.22462 0.27925,0.48567 0.27925,0.80136 0,0.27926 -0.0607,0.48567 -0.16391,0.63744 -0.1032,0.16391 -0.23675,0.30961 -0.37031,0.44318 -0.88634,0.8742 -1.96695,1.6877 -3.23574,2.41014 -1.2688,0.72243 -2.61651,1.32952 -4.03708,1.84555 -1.42057,0.50388 -2.84114,0.88634 -4.27383,1.16561 -1.43271,0.26711 -2.76223,0.40068 -3.9946,0.40068 -2.14299,0 -4.20099,-0.27927 -6.19827,-0.856 -1.9973,-0.57674 -3.87317,-1.39023 -5.62157,-2.42229 -1.74231,-1.03812 -3.33893,-2.27658 -4.78984,-3.73965 -1.46307,-1.46309 -2.70759,-3.05973 -3.75783,-4.82029 -1.05026,-1.742342 -1.84552,-3.624316 -2.42225,-5.633778 -0.57674,-1.997321 -0.8742,-4.067492 -0.8742,-6.210514 0,-2.173376 0.27926,-4.26176 0.85598,-6.283364 0.55852,-2.027675 1.35986,-3.903578 2.3919,-5.664134 1.01989,-1.742344 2.2644,-3.338986 3.70926,-4.789927 1.4327,-1.432729 3.02932,-2.67726 4.77771,-3.697169 1.74232,-1.019908 3.62426,-1.821264 5.64584,-2.397998 2.00944,-0.576735 4.09778,-0.855995 6.27114,-0.855995 1.37199,0 2.76221,0.133559 4.15242,0.400678 1.372,0.267119 2.73793,0.649585 4.04922,1.141326 1.31736,0.503884 2.57401,1.110972 3.78817,1.833407 1.21417,0.722435 2.34941,1.554146 3.39966,2.470849 l -0.0304,-0.03036 c 0.32783,0.267119 0.58887,0.607089 0.78314,1.019909 v 0.248906 z m 20.83497,33.207728 c 0,0.35819 -0.0728,0.64959 -0.22461,0.87421 -0.16392,0.23677 -0.4553,0.35211 -0.91669,0.35211 -0.35818,0 -0.64957,-0.11534 -0.88633,-0.35211 -0.2489,-0.22462 -0.37033,-0.51602 -0.37033,-0.87421 v -6.271217 c -0.50387,0.959197 -1.09273,1.894117 -1.79088,2.822957 -0.69207,0.92885 -1.45092,1.76056 -2.28869,2.48299 -0.84384,0.72244 -1.74232,1.31739 -2.70758,1.76056 -0.9774,0.46139 -1.99729,0.67994 -3.05968,0.67994 -1.55412,0 -2.78043,-0.41282 -3.70925,-1.25667 -0.92884,-0.82564 -1.40236,-2.03982 -1.40236,-3.63646 0,-1.11097 0.23676,-2.17338 0.69815,-3.162933 0.46138,-0.989553 1.0806,-1.906257 1.86373,-2.737968 0.77099,-0.813498 1.65733,-1.554146 2.67722,-2.20373 1.00775,-0.637443 2.058,-1.183823 3.15074,-1.626997 1.09275,-0.431033 2.18548,-0.771003 3.29645,-1.019909 1.09274,-0.236764 2.13084,-0.352111 3.09003,-0.352111 h 0.22463 c 0.22461,0 0.47351,0 0.75277,0.01214 0.27925,0.01214 0.53424,0.06071 0.78314,0.13356 0.23675,0.09106 0.43101,0.236764 0.58886,0.431033 0.16391,0.194267 0.23676,0.473528 0.23676,0.825639 v 13.113106 z m -12.24479,-0.84385 c 0.84384,0 1.63912,-0.17605 2.39189,-0.51602 0.75279,-0.33997 1.45093,-0.80136 2.1005,-1.37809 0.64958,-0.57674 1.25666,-1.24453 1.80302,-1.99732 0.54638,-0.75279 1.05025,-1.535937 1.48129,-2.37979 0.43102,-0.825641 0.81348,-1.669493 1.12309,-2.5437 0.30961,-0.855995 0.56458,-1.687706 0.75278,-2.47085 -0.80135,0.01214 -1.65733,0.115347 -2.58616,0.297473 -0.92883,0.176056 -1.84553,0.431033 -2.76221,0.771003 -0.91669,0.339969 -1.80303,0.771002 -2.64687,1.268814 -0.84384,0.503883 -1.59662,1.062405 -2.2462,1.699847 -0.66778,0.637443 -1.1838,1.347736 -1.56626,2.130881 -0.40066,0.783142 -0.58887,1.626992 -0.58887,2.543702 0,0.8135 0.24891,1.45094 0.771,1.89411 0.50387,0.46139 1.16559,0.67994 1.97907,0.67994 z m 20.47681,-11.279699 c -0.20642,0 -0.41283,0.0425 -0.63745,0.115347 -0.22462,0.07285 -0.44316,0.176055 -0.66778,0.309615 -0.23676,0.133559 -0.46139,0.267118 -0.66779,0.400678 -0.22462,0.145701 -0.41282,0.297473 -0.57672,0.431033 -0.27925,0.194268 -0.54637,0.358182 -0.771,0.473529 -0.23675,0.121417 -0.43102,0.176055 -0.57672,0.176055 -0.2489,0 -0.48567,-0.09106 -0.67994,-0.248906 -0.19425,-0.163914 -0.33995,-0.339969 -0.4128,-0.534238 0,-0.352111 0.2064,-0.740647 0.61922,-1.141326 0.41281,-0.400678 0.91669,-0.771002 1.49341,-1.123113 0.57673,-0.33997 1.14131,-0.637443 1.71196,-0.855995 0.56459,-0.224623 1.00775,-0.339969 1.31737,-0.339969 0.61922,0 1.1231,0.103205 1.52377,0.297473 0.38245,0.20641 0.69814,0.473529 0.92883,0.801356 0.22462,0.33997 0.38247,0.722436 0.48567,1.153469 0.091,0.431032 0.14569,0.874206 0.17605,1.317382 0.44317,-0.400679 0.91669,-0.825641 1.42057,-1.256674 0.50387,-0.431033 1.01989,-0.813498 1.56626,-1.153467 0.54637,-0.33997 1.09275,-0.619231 1.66947,-0.843853 0.56458,-0.20641 1.1413,-0.309615 1.74232,-0.309615 1.25665,0 2.24619,0.382465 2.98683,1.153468 0.74064,0.783144 1.11096,1.79091 1.11096,3.017228 0,0.431033 -0.0911,0.904563 -0.24892,1.420588 -0.1639,0.534237 -0.4128,1.03812 -0.72241,1.493437 -0.30961,0.473528 -0.69815,0.874207 -1.1231,1.183822 -0.43103,0.309615 -0.9167,0.473525 -1.43271,0.473525 -0.33997,0 -0.60708,-0.103202 -0.77099,-0.327824 -0.16392,-0.20641 -0.24891,-0.455316 -0.24891,-0.75279 0,-0.27926 0.0607,-0.48567 0.17606,-0.588875 0.11534,-0.103205 0.26712,-0.20641 0.46138,-0.327828 l 0.2489,-0.176055 -0.0304,0.03036 c 0.13356,-0.09106 0.29748,-0.194268 0.46139,-0.309615 0.16391,-0.115347 0.30961,-0.267119 0.46138,-0.431033 0.13356,-0.163914 0.2489,-0.370324 0.3521,-0.607088 0.0911,-0.236765 0.13356,-0.503884 0.13356,-0.813499 0,-0.649584 -0.16391,-1.165609 -0.50387,-1.535934 -0.33996,-0.370323 -0.84385,-0.55852 -1.48128,-0.55852 -0.44316,0 -0.94704,0.163913 -1.52377,0.473528 -0.57672,0.309616 -1.14131,0.692081 -1.69982,1.153468 -0.57672,0.461387 -1.12309,0.947058 -1.63911,1.432729 -0.53423,0.485671 -0.9774,0.916703 -1.3295,1.268814 v 7.795012 c 0,0.35818 -0.12143,0.64958 -0.37033,0.8742 -0.24891,0.23677 -0.53423,0.35212 -0.85598,0.35212 -0.50387,0 -0.81349,-0.11535 -0.92883,-0.35212 -0.12142,-0.22462 -0.17605,-0.51602 -0.17605,-0.8742 v -9.877327 c 0,-0.236765 0,-0.485671 -0.0122,-0.75279 -0.0121,-0.267119 -0.0425,-0.503883 -0.10319,-0.722435 -0.0607,-0.224623 -0.16391,-0.400678 -0.29747,-0.54638 -0.13356,-0.145701 -0.32175,-0.218551 -0.56458,-0.218551 z m 28.77556,4.12213 c -0.27925,-1.268815 -0.90454,-2.294794 -1.84552,-3.047584 -0.95919,-0.752789 -2.10049,-1.123113 -3.44821,-1.123113 -0.66778,0 -1.28701,0.08499 -1.86374,0.279261 -0.58887,0.194268 -1.11096,0.473528 -1.56627,0.843852 -0.46137,0.370324 -0.85597,0.813498 -1.1838,1.317382 -0.32782,0.516025 -0.54636,1.080617 -0.67992,1.71806 z m -10.69066,2.319079 c 0.13355,1.52379 0.71027,2.70761 1.73017,3.53325 1.00775,0.84385 2.3069,1.25667 3.89137,1.25667 0.5646,0 1.08061,-0.0729 1.56627,-0.2064 0.48567,-0.13356 0.91669,-0.30962 1.31736,-0.50389 0.40068,-0.19427 0.74065,-0.40068 1.05025,-0.61923 0.30962,-0.21855 0.56459,-0.41282 0.78314,-0.60709 0.23676,-0.20641 0.4553,-0.38246 0.64958,-0.51602 0.19425,-0.13356 0.41281,-0.19427 0.64957,-0.19427 0.30961,0 0.56458,0.10321 0.78313,0.32783 0.20641,0.22462 0.30961,0.48567 0.30961,0.80135 0,0.23677 -0.0425,0.44318 -0.11535,0.61923 -0.091,0.17606 -0.20641,0.33997 -0.33995,0.47353 -1.00776,0.98955 -2.0398,1.71806 -3.10826,2.14302 -1.0806,0.43104 -2.31903,0.64959 -3.72747,0.64959 -1.22629,0 -2.31904,-0.19427 -3.29644,-0.58888 -0.9774,-0.38246 -1.80303,-0.92884 -2.47081,-1.627 -0.66779,-0.69814 -1.18382,-1.52378 -1.55412,-2.51334 -0.37032,-0.98955 -0.54637,-2.08231 -0.54637,-3.284346 0,-1.16561 0.2064,-2.234086 0.60707,-3.211498 0.40068,-0.977412 0.94705,-1.821265 1.65733,-2.531558 0.69814,-0.692081 1.53591,-1.256673 2.51331,-1.657351 0.9774,-0.400679 2.03978,-0.588876 3.19324,-0.588876 1.00776,0 1.96694,0.194269 2.88362,0.588876 0.9167,0.400678 1.73019,0.947058 2.42226,1.608784 0.69814,0.667797 1.2445,1.463083 1.66947,2.367645 0.41281,0.916703 0.61921,1.875902 0.61921,2.895811 0,0.48567 -0.11534,0.843853 -0.35817,1.050262 -0.2489,0.224623 -0.58887,0.327831 -1.05024,0.327831 h -11.74093 z"
   id="path16"
   style="stroke-width:0.607084" />
  <path
   class="fil2"
   d="m 23.88,130.22 c -2.52,-0.66 -4.94,-1.59 -7.16,-2.85 -2.21,-1.25 -4.22,-2.82 -5.88,-4.7 -0.84,-0.94 -1.59,-1.95 -2.25,-3.02 -0.67,-1.07 -1.24,-2.2 -1.73,-3.38 -0.06,-0.15 -0.13,-0.29 -0.18,-0.44 -0.06,-0.15 -0.11,-0.3 -0.2,-0.44 -0.09,-0.13 -0.19,-0.27 -0.24,-0.42 l -0.15,-0.46 c -0.18,-0.62 -0.37,-1.24 -0.51,-1.87 -0.3,-1.26 -0.52,-2.54 -0.67,-3.84 -0.3,-2.6 -0.3,-5.25 -0.08,-7.89 0.45,-5.29 1.77,-10.55 3.65,-15.59 0.63,-1.68 1.32,-3.33 2.07,-4.96 -0.05,5.09 0.38,10.18 1.23,15.18 0.48,2.83 1.1,5.63 1.84,8.4 0.18,0.69 0.38,1.38 0.58,2.07 l 0.31,1.03 c 0.11,0.34 0.23,0.68 0.35,1.02 0.49,1.34 0.97,2.69 1.5,4.02 2.11,5.32 4.74,10.4 7.81,15.24 0.76,1.19 1.56,2.38 2.4,3.53 -0.91,-0.17 -1.8,-0.37 -2.68,-0.61 z m 0.71,-82.46 c 2.56,-4.83 5.4,-9.52 8.51,-13.99 3.11,-4.46 6.48,-8.71 10.14,-12.59 3.67,-3.85 7.65,-7.34 11.98,-9.91 2.16,-1.29 4.42,-2.27 6.69,-2.99 1.14,-0.36 2.28,-0.65 3.44,-0.86 0.29,-0.04 0.58,-0.09 0.87,-0.13 0.25,-0.04 0.45,-0.07 0.68,-0.08 0.45,-0.03 0.93,-0.02 1.41,0.04 0.96,0.12 1.95,0.42 2.83,0.91 0.88,0.49 1.65,1.15 2.17,1.9 0.52,0.76 0.79,1.58 0.77,2.4 -0.01,0.21 -0.03,0.41 -0.08,0.62 -0.05,0.22 -0.1,0.37 -0.22,0.7 -0.21,0.59 -0.47,1.16 -0.75,1.72 -0.57,1.11 -1.25,2.17 -1.96,3.19 -0.7,1.03 -1.42,2.05 -2.17,3.05 -1.52,2 -3.3,3.85 -5.27,5.52 -3.93,3.36 -8.54,6.06 -13.39,8.3 -0.61,0.28 -1.22,0.55 -1.83,0.82 l -1.86,0.77 -1.89,0.73 c -0.7,0.27 -1.39,0.55 -2.07,0.84 -2.73,1.19 -5.34,2.6 -7.81,4.19 -4.95,3.18 -9.37,7.02 -13.31,11.26 -0.01,0.01 -0.02,0.03 -0.03,0.04 0.98,-2.18 2.05,-4.34 3.17,-6.46 z m 18.31,74.85 c 0.01,-0.14 -0.01,-0.29 0.01,-0.44 l 0.03,-0.45 c 0.01,-0.15 0.04,-0.3 0.06,-0.45 0.03,-0.3 0.12,-0.61 0.17,-0.91 0.08,-0.3 0.15,-0.61 0.25,-0.91 0.78,-2.42 2.18,-4.71 3.94,-6.67 0.88,-0.98 1.85,-1.91 2.89,-2.75 1.05,-0.83 2.15,-1.59 3.3,-2.28 2.32,-1.36 4.81,-2.46 7.4,-3.28 2.34,-0.74 4.75,-1.26 7.2,-1.62 l -0.14,0.24 c -1.39,2.43 -2.79,4.82 -4.29,7.13 -1.5,2.3 -3.08,4.53 -4.83,6.54 -0.87,1.01 -1.79,1.92 -2.78,2.85 -0.99,0.9 -2,1.78 -3.07,2.59 -0.52,0.42 -1.07,0.8 -1.61,1.2 -0.55,0.38 -1.1,0.76 -1.67,1.12 -1.13,0.73 -2.28,1.41 -3.47,2.03 -0.85,0.45 -1.71,0.87 -2.58,1.27 -0.1,-0.31 -0.2,-0.63 -0.28,-0.96 -0.32,-1.22 -0.49,-2.5 -0.53,-3.8 -0.01,-0.17 -0.01,-0.31 -0.01,-0.46 z M 79.56,90.39 c 1.5,-2.27 3.13,-4.45 5.06,-6.14 0.96,-0.84 2,-1.55 3.1,-1.98 0.55,-0.21 1.11,-0.36 1.68,-0.45 0.14,-0.03 0.28,-0.04 0.43,-0.05 l 0.21,-0.02 c 0.07,0 0.12,0 0.18,0 0.24,-0.01 0.48,0.01 0.71,0.06 0.93,0.16 1.82,0.75 2.47,1.6 0.65,0.85 1.06,1.95 1.09,3.04 0.01,0.27 -0.01,0.55 -0.03,0.81 -0.04,0.27 -0.09,0.52 -0.18,0.8 -0.16,0.55 -0.4,1.11 -0.7,1.65 -0.29,0.54 -0.64,1.06 -1.03,1.56 -0.39,0.5 -0.82,0.97 -1.27,1.43 -1.84,1.81 -4.12,3.23 -6.56,4.29 -2.45,1.05 -5.07,1.76 -7.75,2.17 -0.89,0.14 -1.77,0.24 -2.67,0.32 1.67,-3.13 3.37,-6.21 5.27,-9.11 z m 29.51,-9.97 c -1.06,-2.82 -2.4,-5.53 -3.99,-8.08 -1.59,-2.55 -3.44,-4.93 -5.46,-7.12 -4.09,-4.33 -8.7,-8.17 -13.88,-10.93 -5.15,-2.8 -10.58,-4.91 -16.12,-6.47 -1.16,-0.33 -2.32,-0.63 -3.48,-0.91 4.25,-1.65 8.16,-4.16 11.39,-7.37 3.27,-3.24 5.82,-7.16 7.48,-11.41 1.67,-4.25 2.44,-8.81 2.36,-13.31 -0.01,-0.76 -0.63,-1.38 -1.39,-1.39 -0.78,-0.01 -1.42,0.61 -1.44,1.39 -0.07,4.16 -0.93,8.29 -2.57,12.07 -1.63,3.78 -4.04,7.2 -7.04,9.96 -2.99,2.78 -6.56,4.88 -10.4,6.2 -3.81,1.33 -7.87,1.85 -11.92,1.75 h -0.02 c -1.26,-0.13 -2.38,0.79 -2.52,2.05 -0.13,1.27 0.78,2.4 2.05,2.54 l 0.07,0.01 h 0.01 l 0.95,0.15 0.99,0.18 c 0.66,0.12 1.33,0.25 1.99,0.4 1.33,0.28 2.65,0.59 3.96,0.93 2.62,0.67 5.22,1.45 7.77,2.34 5.1,1.77 10.02,3.96 14.57,6.68 2.28,1.36 4.47,2.81 6.58,4.35 2.11,1.55 4.07,3.29 5.83,5.19 1.74,1.92 3.34,3.96 4.67,6.15 1.34,2.19 2.46,4.52 3.34,6.93 1.74,4.84 2.5,10.03 2.48,15.26 0,5.21 -0.84,10.39 -2.53,15.3 -1.66,4.92 -4.23,9.53 -7.48,13.61 -1.62,2.04 -3.44,3.93 -5.4,5.65 -1.97,1.72 -4.08,3.28 -6.33,4.62 -4.49,2.7 -9.49,4.58 -14.7,5.5 -5.21,0.91 -10.62,0.9 -15.86,-0.09 -5.23,-1 -10.31,-2.96 -14.85,-5.81 -0.66,-0.41 -1.3,-0.83 -1.93,-1.28 1.42,-0.37 2.81,-0.79 4.19,-1.28 0.64,-0.22 1.28,-0.46 1.91,-0.71 0.57,0.89 1.24,1.72 1.98,2.48 1.12,1.14 2.38,2.11 3.75,2.89 1.38,0.8 2.91,1.38 4.47,1.73 1.56,0.36 3.15,0.46 4.7,0.41 1.55,-0.06 3.07,-0.29 4.54,-0.61 1.46,-0.33 2.89,-0.76 4.27,-1.25 0.69,-0.24 1.37,-0.5 2.05,-0.76 l 1.01,-0.41 c 0.34,-0.15 0.68,-0.28 1.02,-0.44 5.39,-2.43 10.18,-5.87 14.37,-9.88 4.2,-4.01 7.78,-8.66 10.55,-13.76 2.77,-5.1 4.68,-10.68 5.49,-16.42 0.83,-5.73 0.54,-11.6 -0.74,-17.18 -0.12,-0.5 -0.61,-0.84 -1.13,-0.76 -0.49,0.08 -0.83,0.5 -0.83,0.98 0,0.05 0,0.11 0.01,0.16 0.89,5.44 0.91,10.99 -0.1,16.35 -0.5,2.68 -1.22,5.31 -2.18,7.85 -0.96,2.55 -2.14,5.01 -3.49,7.36 -1.36,2.35 -2.91,4.6 -4.62,6.71 -1.71,2.12 -3.56,4.11 -5.56,5.95 -2,1.84 -4.13,3.53 -6.37,5.04 -2.24,1.51 -4.59,2.85 -7.03,3.91 -0.3,0.14 -0.61,0.26 -0.92,0.39 l -0.95,0.37 c -0.64,0.24 -1.27,0.47 -1.91,0.69 -1.27,0.43 -2.55,0.8 -3.83,1.08 -2.55,0.56 -5.11,0.73 -7.48,0.22 -1.19,-0.25 -2.32,-0.67 -3.38,-1.25 -1.08,-0.59 -2.09,-1.31 -2.97,-2.14 -0.42,-0.4 -0.81,-0.82 -1.16,-1.27 0.87,-0.41 1.72,-0.86 2.57,-1.32 1.29,-0.71 2.55,-1.47 3.77,-2.3 0.62,-0.4 1.21,-0.83 1.81,-1.26 0.58,-0.44 1.18,-0.88 1.74,-1.35 1.15,-0.91 2.24,-1.9 3.3,-2.92 1.04,-1.02 2.1,-2.11 3.03,-3.25 1.89,-2.27 3.52,-4.68 5.02,-7.13 1.5,-2.45 2.88,-4.94 4.23,-7.43 0.46,-0.86 0.92,-1.72 1.38,-2.58 l 0.3,-0.02 c 1.43,-0.09 2.88,-0.21 4.32,-0.43 2.87,-0.42 5.73,-1.16 8.45,-2.3 2.71,-1.15 5.31,-2.71 7.49,-4.83 0.54,-0.53 1.06,-1.1 1.54,-1.71 0.48,-0.61 0.92,-1.25 1.3,-1.94 0.39,-0.69 0.72,-1.43 0.96,-2.22 0.13,-0.39 0.22,-0.82 0.29,-1.25 0.06,-0.43 0.09,-0.86 0.09,-1.29 -0.04,-1.72 -0.57,-3.4 -1.57,-4.83 -0.5,-0.71 -1.13,-1.35 -1.87,-1.86 -0.37,-0.26 -0.77,-0.48 -1.2,-0.66 -0.42,-0.18 -0.87,-0.33 -1.33,-0.41 -0.45,-0.09 -0.92,-0.13 -1.38,-0.12 -0.11,0 -0.23,0.01 -0.34,0.01 l -0.31,0.03 c -0.21,0.02 -0.41,0.04 -0.62,0.08 -0.82,0.14 -1.62,0.37 -2.37,0.68 -1.51,0.61 -2.84,1.49 -4.02,2.47 -2.35,1.98 -4.15,4.33 -5.8,6.7 -1.64,2.38 -3.1,4.83 -4.51,7.29 l -2.34,4.12 c -0.42,0.04 -0.84,0.09 -1.25,0.14 -2.85,0.38 -5.69,0.99 -8.46,1.85 -2.77,0.85 -5.46,2.01 -8,3.48 -1.26,0.75 -2.48,1.57 -3.64,2.48 -1.16,0.92 -2.26,1.91 -3.27,3 -2.01,2.18 -3.73,4.7 -4.78,7.61 -0.14,0.36 -0.24,0.74 -0.36,1.11 -0.09,0.38 -0.21,0.76 -0.28,1.15 -0.03,0.19 -0.08,0.39 -0.11,0.59 l -0.07,0.6 c -0.03,0.2 -0.03,0.41 -0.05,0.61 -0.01,0.21 -0.02,0.41 -0.02,0.6 -0.02,1.51 0.11,3.04 0.43,4.56 0.11,0.51 0.24,1.03 0.39,1.54 -0.49,0.18 -0.98,0.35 -1.47,0.52 -1.27,0.42 -2.56,0.79 -3.85,1.1 -0.65,0.16 -1.3,0.29 -1.94,0.41 -0.32,0.06 -0.65,0.12 -0.97,0.17 l -0.47,0.07 -0.2,0.02 c -0.74,-0.8 -1.43,-1.71 -2.08,-2.63 -0.77,-1.09 -1.48,-2.24 -2.15,-3.42 -1.34,-2.36 -2.5,-4.83 -3.53,-7.35 -1.04,-2.52 -1.96,-5.08 -2.79,-7.67 -0.42,-1.29 -0.81,-2.59 -1.16,-3.91 -0.17,-0.66 -0.35,-1.31 -0.55,-1.96 -0.18,-0.65 -0.37,-1.3 -0.54,-1.96 -0.69,-2.62 -1.26,-5.27 -1.72,-7.94 -0.92,-5.34 -1.34,-10.75 -1.18,-16.13 0.1,-3.08 0.4,-6.16 0.93,-9.18 2.65,-3.98 5.65,-7.72 8.96,-11.14 3.73,-3.85 7.87,-7.29 12.36,-10.05 2.25,-1.38 4.59,-2.59 6.99,-3.57 0.6,-0.25 1.21,-0.48 1.82,-0.7 l 2.02,-0.75 2.01,-0.8 c 0.67,-0.29 1.34,-0.56 2,-0.85 2.65,-1.17 5.26,-2.49 7.79,-3.98 2.52,-1.51 4.97,-3.19 7.27,-5.11 2.3,-1.92 4.44,-4.08 6.33,-6.5 0.94,-1.21 1.8,-2.5 2.49,-3.89 0.69,-1.38 1.24,-2.84 1.71,-4.31 0.23,-0.74 0.45,-1.48 0.65,-2.23 0.1,-0.33 0.22,-0.85 0.31,-1.32 0.09,-0.48 0.14,-0.97 0.16,-1.46 C 79.68,10.71 79.13,8.74 78.22,7.11 77.3,5.47 76.06,4.11 74.64,3.02 73.22,1.93 71.61,1.09 69.86,0.57 68.98,0.31 68.07,0.13 67.13,0.04 66.67,-0.01 66.17,-0.01 65.72,-0.01 65.32,0 64.91,0.02 64.51,0.03 62.9,0.13 61.3,0.4 59.76,0.8 c -3.09,0.82 -5.95,2.18 -8.57,3.75 -2.62,1.59 -5.03,3.41 -7.25,5.38 -1.11,0.99 -2.18,2.01 -3.21,3.05 -1.03,1.05 -2.02,2.13 -2.98,3.22 -1.92,2.19 -3.71,4.47 -5.39,6.81 -1.69,2.33 -3.27,4.72 -4.77,7.15 -3.01,4.86 -5.72,9.87 -8.18,14.99 -1.23,2.57 -2.4,5.16 -3.49,7.81 -0.55,1.32 -1.06,2.69 -1.53,4.07 -0.46,1.38 -0.9,2.76 -1.27,4.17 -0.39,1.4 -0.71,2.81 -1.02,4.23 -0.09,0.44 -0.17,0.88 -0.25,1.32 -0.26,0.41 -0.52,0.83 -0.77,1.25 -2.98,4.93 -5.46,10.14 -7.37,15.59 -1.9,5.44 -3.23,11.13 -3.61,16.96 -0.19,2.91 -0.13,5.87 0.26,8.8 0.19,1.47 0.47,2.93 0.85,4.37 0.18,0.72 0.4,1.44 0.64,2.15 l 0.18,0.53 c 0.06,0.18 0.07,0.38 0.1,0.56 0.03,0.19 0.1,0.36 0.17,0.54 0.07,0.18 0.14,0.35 0.21,0.53 1.13,2.81 2.71,5.47 4.73,7.78 2,2.32 4.43,4.27 7.05,5.78 2.63,1.51 5.46,2.6 8.33,3.36 2.87,0.75 5.79,1.17 8.7,1.38 l 0.06,0.01 c 0.09,0.01 0.19,0 0.29,-0.01 0.35,0.3 0.7,0.59 1.07,0.87 1.14,0.9 2.31,1.74 3.52,2.53 2.42,1.59 4.99,2.96 7.66,4.1 2.67,1.14 5.45,2.03 8.28,2.69 5.68,1.31 11.59,1.59 17.41,0.84 5.81,-0.77 11.53,-2.59 16.72,-5.43 2.59,-1.41 5.07,-3.06 7.37,-4.93 2.3,-1.87 4.44,-3.95 6.37,-6.2 3.87,-4.5 6.91,-9.73 8.98,-15.32 2.05,-5.6 3.1,-11.58 3.06,-17.52 0.01,-5.91 -0.94,-11.91 -3.05,-17.55 z"
   id="path18" />
  <path
   class="fil3"
   d="m 90.16,78.5 c -0.11,0 -0.24,0.01 -0.34,0.01 v 0 l -0.31,0.03 c -0.21,0.02 -0.41,0.04 -0.62,0.08 v 0 c -0.82,0.14 -1.62,0.37 -2.37,0.68 v 0 c -1.51,0.61 -2.84,1.49 -4.02,2.47 v 0 c -2.35,1.98 -4.15,4.33 -5.8,6.7 v 0 c -1.64,2.38 -3.1,4.83 -4.51,7.29 v 0 l -2.34,4.12 c -0.42,0.04 -0.84,0.09 -1.25,0.14 v 0 c -2.85,0.38 -5.69,0.99 -8.46,1.85 v 0 c -2.77,0.85 -5.46,2.01 -8,3.48 v 0 c -1.26,0.75 -2.48,1.57 -3.64,2.48 v 0 c -1.16,0.92 -2.26,1.91 -3.27,3 v 0 c -2.01,2.18 -3.73,4.7 -4.78,7.61 v 0 c -0.13,0.36 -0.24,0.74 -0.36,1.11 v 0 c -0.09,0.38 -0.21,0.76 -0.28,1.15 v 0 c -0.03,0.19 -0.08,0.39 -0.11,0.59 v 0 l -0.08,0.6 c -0.03,0.2 -0.03,0.41 -0.05,0.61 v 0 c -0.01,0.21 -0.02,0.41 -0.02,0.6 v 0 c -0.02,1.51 0.11,3.04 0.43,4.56 v 0 c 0.11,0.51 0.24,1.03 0.39,1.54 v 0 c -0.49,0.18 -0.98,0.35 -1.47,0.52 v 0 c -1.27,0.42 -2.56,0.79 -3.85,1.1 v 0 c -0.18,0.04 -0.36,0.09 -0.54,0.13 0.06,0.77 0.29,1.53 0.72,2.19 v 0 c 0.57,0.88 1.33,1.56 2.19,2.01 v 0 c 1.02,-0.29 2.02,-0.61 3.02,-0.96 v 0 c 0.64,-0.23 1.28,-0.46 1.91,-0.71 v 0 c 0.57,0.89 1.24,1.72 1.98,2.48 v 0 c 1.12,1.14 2.38,2.11 3.75,2.89 v 0 c 1.39,0.8 2.91,1.38 4.47,1.73 v 0 c 0.28,0.07 0.57,0.12 0.85,0.17 v 0 c 0.09,-0.01 0.17,-0.03 0.26,-0.04 v 0 c 0.04,0.02 0.07,0.04 0.11,0.06 v 0 c 0.04,0.02 0.08,0.04 0.12,0.06 v 0 c 1.13,0.16 2.26,0.2 3.37,0.16 v 0 c 1.55,-0.06 3.07,-0.29 4.54,-0.61 v 0 c 1.46,-0.33 2.89,-0.76 4.27,-1.25 v 0 c 0.69,-0.24 1.37,-0.5 2.05,-0.76 v 0 l 1.01,-0.41 c 0.34,-0.15 0.68,-0.28 1.02,-0.44 v 0 c 5.39,-2.43 10.18,-5.87 14.37,-9.88 v 0 c 4.2,-4.01 7.78,-8.66 10.55,-13.76 v 0 c 2.77,-5.1 4.68,-10.68 5.49,-16.42 v 0 c 0.83,-5.73 0.54,-11.6 -0.74,-17.18 v 0 c -0.12,-0.5 -0.61,-0.84 -1.13,-0.76 v 0 c -0.49,0.08 -0.83,0.5 -0.83,0.98 v 0 c 0,0.05 0,0.11 0.01,0.16 v 0 c 0.89,5.44 0.91,10.99 -0.1,16.35 v 0 c -0.5,2.68 -1.22,5.31 -2.18,7.85 v 0 c -0.96,2.55 -2.13,5.01 -3.49,7.36 v 0 c -1.36,2.35 -2.91,4.6 -4.62,6.71 v 0 c -1.71,2.12 -3.56,4.11 -5.56,5.95 v 0 c -2,1.84 -4.13,3.53 -6.37,5.04 v 0 c -2.24,1.51 -4.59,2.85 -7.04,3.91 v 0 c -0.3,0.14 -0.61,0.26 -0.92,0.39 v 0 l -0.95,0.37 c -0.64,0.24 -1.27,0.47 -1.91,0.69 v 0 c -1.27,0.43 -2.55,0.8 -3.83,1.08 v 0 c -2.55,0.56 -5.11,0.73 -7.48,0.22 v 0 c -1.19,-0.25 -2.32,-0.67 -3.38,-1.25 v 0 c -1.07,-0.59 -2.09,-1.31 -2.97,-2.14 v 0 c -0.42,-0.4 -0.81,-0.82 -1.16,-1.27 v 0 c 0.87,-0.41 1.72,-0.86 2.57,-1.32 v 0 c 1.29,-0.71 2.55,-1.47 3.77,-2.3 v 0 c 0.62,-0.4 1.21,-0.83 1.81,-1.26 v 0 c 0.58,-0.45 1.18,-0.88 1.74,-1.35 v 0 c 1.15,-0.91 2.24,-1.9 3.3,-2.92 v 0 c 1.04,-1.02 2.1,-2.11 3.03,-3.25 v 0 c 1.89,-2.27 3.52,-4.68 5.02,-7.12 v 0 c 1.5,-2.45 2.88,-4.94 4.23,-7.43 v 0 c 0.46,-0.86 0.92,-1.72 1.38,-2.58 v 0 l 0.3,-0.02 c 1.43,-0.09 2.88,-0.21 4.32,-0.43 v 0 c 2.87,-0.42 5.73,-1.16 8.45,-2.3 v 0 c 2.71,-1.15 5.31,-2.71 7.49,-4.83 v 0 c 0.54,-0.54 1.06,-1.1 1.54,-1.71 v 0 c 0.48,-0.61 0.92,-1.25 1.3,-1.94 v 0 c 0.39,-0.69 0.72,-1.43 0.96,-2.22 v 0 c 0.13,-0.39 0.22,-0.82 0.29,-1.25 v 0 c 0.06,-0.43 0.09,-0.86 0.09,-1.29 v 0 C 97.46,84.68 96.93,83 95.93,81.57 v 0 c -0.5,-0.71 -1.13,-1.35 -1.87,-1.86 v 0 c -0.37,-0.26 -0.77,-0.48 -1.2,-0.66 v 0 c -0.42,-0.18 -0.87,-0.33 -1.33,-0.41 v 0 C 91.12,78.56 90.7,78.52 90.28,78.52 v 0 c -0.05,0 -0.09,0 -0.14,0 z m -10.6,11.89 c 1.5,-2.27 3.13,-4.45 5.06,-6.14 v 0 c 0.96,-0.84 2,-1.55 3.1,-1.98 v 0 c 0.55,-0.21 1.11,-0.36 1.68,-0.44 v 0 c 0.14,-0.03 0.28,-0.04 0.43,-0.05 v 0 l 0.21,-0.02 c 0.07,0 0.12,0 0.18,0 v 0 c 0.24,-0.01 0.48,0.01 0.71,0.06 v 0 c 0.93,0.16 1.82,0.75 2.47,1.6 v 0 c 0.65,0.85 1.06,1.95 1.09,3.04 v 0 c 0.01,0.27 -0.01,0.55 -0.03,0.81 v 0 c -0.04,0.27 -0.09,0.52 -0.18,0.8 v 0 c -0.16,0.55 -0.4,1.11 -0.7,1.65 v 0 c -0.29,0.54 -0.64,1.06 -1.03,1.57 v 0 c -0.39,0.5 -0.82,0.97 -1.27,1.43 v 0 c -1.84,1.82 -4.12,3.24 -6.56,4.3 v 0 c -2.45,1.05 -5.07,1.76 -7.75,2.17 v 0 c -0.89,0.14 -1.77,0.24 -2.67,0.32 v 0 c 1.67,-3.13 3.37,-6.21 5.27,-9.11 z m -36.12,36.47 c -0.32,-1.22 -0.49,-2.5 -0.53,-3.8 v 0 C 42.9,122.89 42.9,122.75 42.9,122.6 v 0 c 0.01,-0.14 -0.01,-0.29 0.01,-0.44 v 0 l 0.03,-0.45 c 0.01,-0.15 0.04,-0.3 0.06,-0.45 v 0 c 0.03,-0.3 0.12,-0.61 0.17,-0.91 v 0 c 0.08,-0.3 0.15,-0.61 0.25,-0.91 v 0 c 0.78,-2.42 2.18,-4.71 3.94,-6.67 v 0 c 0.88,-0.98 1.85,-1.91 2.89,-2.75 v 0 c 1.05,-0.83 2.15,-1.59 3.3,-2.29 v 0 c 2.32,-1.36 4.81,-2.46 7.4,-3.28 v 0 c 2.34,-0.74 4.75,-1.26 7.2,-1.62 v 0 l -0.14,0.24 c -1.39,2.43 -2.79,4.82 -4.29,7.13 v 0 c -1.5,2.3 -3.08,4.53 -4.83,6.54 v 0 c -0.87,1.01 -1.79,1.92 -2.78,2.85 v 0 c -0.99,0.9 -2,1.78 -3.07,2.59 v 0 c -0.52,0.42 -1.07,0.8 -1.61,1.2 v 0 c -0.56,0.38 -1.1,0.76 -1.67,1.12 v 0 c -1.13,0.73 -2.28,1.41 -3.47,2.03 v 0 c -0.85,0.45 -1.71,0.88 -2.58,1.27 v 0 c -0.1,-0.31 -0.2,-0.63 -0.28,-0.96 v 0 z"
   id="path20" />
 <text
   style="font-variant:normal;font-weight:normal;font-stretch:normal;font-size:33.9115px;font-family:'French Script MT';-inkscape-font-specification:FrenchScriptMT;writing-mode:lr-tb;fill:#b95cc7;fill-opacity:1;fill-rule:nonzero;stroke:none;stroke-width:0.494964"
   id="text25"
   x="131.26949"
   y="124.97835"><tspan
     x="131.26949 154.22762 165.89317 177.18573 188.85127 197.32918 214.62407 225.91663 236.1579 244.6358 277.83517 289.05991 296.48654 305.30356 313.44232 319.81772 327.24429 338.90991 347.38779 363.2923 374.95786 383.09665"
     y="124.97835"
     sodipodi:role="line"
     id="tspan23"
     style="stroke-width:0.494964">Baby And Materity Care</tspan></text></g>
</svg>
