<?xml version="1.0" encoding="UTF-8"?>
<!DOCTYPE svg PUBLIC "-//W3C//DTD SVG 1.1//EN" "http://www.w3.org/Graphics/SVG/1.1/DTD/svg11.dtd">
<!-- Creator: CorelDRAW 2019 (64-Bit) -->
<svg xmlns="http://www.w3.org/2000/svg" xml:space="preserve" width="48.9656mm" height="11.1115mm" version="1.1" style="shape-rendering:geometricPrecision; text-rendering:geometricPrecision; image-rendering:optimizeQuality; fill-rule:evenodd; clip-rule:evenodd"
viewBox="0 0 651.24 147.78"
 xmlns:xlink="http://www.w3.org/1999/xlink">
 <defs>
  <style type="text/css">
   <![CDATA[
    .fil0 {fill:#B95CC7;fill-rule:nonzero}
    .fil2 {fill:#D7A4DF;fill-rule:nonzero}
    .fil1 {fill:#FE0096;fill-rule:nonzero}
    .fil3 {fill:url(#id0)}
   ]]>
  </style>
  <linearGradient id="id0" gradientUnits="userSpaceOnUse" x1="102.69" y1="107.97" x2="34.51" y2="107.97">
   <stop offset="0" style="stop-opacity:1; stop-color:#FF6FC4"/>
   <stop offset="0.819608" style="stop-opacity:1; stop-color:#EB89D1"/>
   <stop offset="1" style="stop-opacity:1; stop-color:#D7A4DF"/>
  </linearGradient>
 </defs>
 <g id="Layer_x0020_1">
  <metadata id="CorelCorpID_0Corel-Layer"/>
  <path class="fil0" d="M162.02 123.65c-0.56,0 -1.02,-0.03 -1.39,-0.1 -0.39,-0.07 -0.71,-0.22 -0.93,-0.41 -0.22,-0.19 -0.39,-0.46 -0.46,-0.83 -0.07,-0.36 -0.12,-0.85 -0.12,-1.44l0 -31.81 -6.58 0c-0.59,0 -1.07,-0.2 -1.46,-0.56 -0.37,-0.37 -0.56,-0.83 -0.56,-1.44 0,-0.41 0.12,-0.75 0.39,-1.02 0.27,-0.24 0.66,-0.44 1.12,-0.61 0.46,-0.15 0.97,-0.24 1.58,-0.32 0.61,-0.05 1.24,-0.07 1.9,-0.07 0.46,0 0.97,0 1.49,0.02 0.51,0.03 1,0.03 1.46,0.05 0.05,0 0.15,0 0.27,0.02 0.12,0.03 0.24,0.03 0.32,0.03l0.07 0 0 -36.29c0,-0.46 0.1,-0.83 0.32,-1.12 0.22,-0.29 0.46,-0.51 0.76,-0.66 0.29,-0.12 0.61,-0.22 0.95,-0.29 0.32,-0.05 0.61,-0.07 0.88,-0.07l15.81 0c3.43,0 6.65,0.44 9.69,1.34 3.02,0.9 5.67,2.24 7.94,4.04 2.26,1.83 4.04,4.09 5.38,6.82 1.34,2.75 2,5.97 2,9.69 0,2.19 -0.34,4.26 -1,6.19 -0.68,1.95 -1.63,3.75 -2.83,5.38 -1.19,1.63 -2.61,3.07 -4.24,4.31 -1.63,1.24 -3.39,2.26 -5.31,3.04 1.39,0.85 2.65,1.85 3.75,3 1.1,1.17 2.05,2.46 2.8,3.87 0.76,1.41 1.32,2.92 1.73,4.51 0.41,1.58 0.61,3.24 0.61,4.94 0,3.51 -0.56,6.5 -1.66,8.99 -1.1,2.48 -2.63,4.53 -4.6,6.14 -1.97,1.58 -4.33,2.78 -7.06,3.53 -2.73,0.76 -5.7,1.12 -8.91,1.12l-14.1 0zm1.12 -34.59l0 30.66 10.91 0c1.27,0 2.56,-0.02 3.87,-0.07 1.32,-0.07 2.63,-0.22 3.97,-0.46 1.97,-0.36 3.73,-0.97 5.26,-1.88 1.53,-0.9 2.85,-2.02 3.9,-3.34 1.05,-1.32 1.88,-2.82 2.44,-4.51 0.56,-1.68 0.83,-3.53 0.83,-5.5 0,-2.31 -0.34,-4.38 -1.02,-6.24 -0.68,-1.83 -1.68,-3.38 -2.97,-4.68 -1.29,-1.29 -2.87,-2.26 -4.72,-2.97 -1.85,-0.68 -3.92,-1.02 -6.21,-1.02l-16.25 0zm0 -38.29l0 34.44 14.95 0c1.44,0 2.87,-0.02 4.34,-0.1 1.44,-0.05 2.8,-0.27 4.04,-0.63 1.83,-0.46 3.48,-1.19 4.99,-2.19 1.51,-1 2.83,-2.19 3.92,-3.58 1.1,-1.39 1.92,-2.92 2.53,-4.6 0.61,-1.68 0.9,-3.48 0.9,-5.38 0,-2.9 -0.54,-5.46 -1.58,-7.67 -1.05,-2.22 -2.48,-4.09 -4.29,-5.63 -1.83,-1.51 -3.94,-2.65 -6.36,-3.46 -2.41,-0.8 -5.02,-1.19 -7.8,-1.19l-15.66 0zm46.42 39.8c0,-0.63 0.2,-1.14 0.59,-1.51 0.39,-0.37 0.88,-0.54 1.46,-0.54 0.39,0 0.71,0.07 0.97,0.19 0.24,0.15 0.44,0.34 0.56,0.56 0.12,0.22 0.22,0.46 0.27,0.71 0.03,0.27 0.05,0.49 0.05,0.68l0 11.11c0,1.32 0.12,2.53 0.39,3.63 0.24,1.1 0.66,2.07 1.24,2.87 0.56,0.8 1.34,1.44 2.29,1.9 0.95,0.46 2.12,0.71 3.56,0.71 1.41,0 2.61,-0.24 3.56,-0.71 0.95,-0.46 1.71,-1.1 2.26,-1.9 0.56,-0.8 0.95,-1.78 1.19,-2.87 0.24,-1.1 0.36,-2.31 0.36,-3.63l0 -11.2c0,-0.63 0.24,-1.14 0.71,-1.51 0.46,-0.37 0.93,-0.54 1.44,-0.54 0.39,0 0.71,0.07 0.97,0.19 0.24,0.15 0.44,0.34 0.56,0.56 0.12,0.22 0.2,0.46 0.24,0.71 0.02,0.27 0.05,0.49 0.05,0.68l0 11.79c0,1.83 -0.22,3.51 -0.68,5.02 -0.46,1.51 -1.14,2.8 -2.09,3.87 -0.95,1.1 -2.12,1.92 -3.56,2.53 -1.44,0.61 -3.09,0.9 -5.02,0.9 -1.92,0 -3.6,-0.29 -5.04,-0.9 -1.44,-0.61 -2.61,-1.44 -3.53,-2.53 -0.95,-1.07 -1.63,-2.36 -2.09,-3.87 -0.46,-1.51 -0.71,-3.19 -0.71,-5.02l0 -11.89zm35.1 23.8c-0.76,0 -1.24,-0.17 -1.49,-0.53 -0.27,-0.34 -0.39,-0.83 -0.39,-1.49l0 -21.77c0,-0.63 0.2,-1.14 0.59,-1.51 0.39,-0.37 0.88,-0.54 1.46,-0.54 0.41,0 0.73,0.1 1,0.32 0.24,0.22 0.44,0.51 0.59,0.88 0.15,0.37 0.24,0.8 0.32,1.29 0.05,0.49 0.07,0.97 0.07,1.49l0 0.22c1.49,-1.17 3.07,-2.17 4.75,-2.97 1.68,-0.8 3.51,-1.22 5.5,-1.22 1.63,0 3.02,0.27 4.12,0.78 1.1,0.54 1.95,1.27 2.61,2.19 0.63,0.93 1.07,2 1.34,3.24 0.24,1.24 0.36,2.58 0.36,4.02l0 13.59c0,0.59 -0.17,1.07 -0.54,1.44 -0.36,0.39 -0.85,0.58 -1.44,0.58 -1.32,0 -1.97,-0.68 -1.97,-2.02l0 -13.96c0,-0.88 -0.07,-1.68 -0.22,-2.44 -0.17,-0.73 -0.41,-1.36 -0.78,-1.9 -0.37,-0.54 -0.88,-0.95 -1.49,-1.24 -0.61,-0.29 -1.39,-0.44 -2.29,-0.44 -0.93,0 -1.85,0.17 -2.75,0.51 -0.9,0.34 -1.8,0.76 -2.65,1.27 -0.88,0.51 -1.71,1.1 -2.48,1.75 -0.78,0.66 -1.51,1.32 -2.19,1.97l0 14.47c0,0.59 -0.2,1.07 -0.56,1.44 -0.36,0.39 -0.85,0.58 -1.46,0.58zm56.9 -2.02c0,0.59 -0.12,1.07 -0.36,1.44 -0.27,0.39 -0.76,0.58 -1.51,0.58 -0.58,0 -1.07,-0.19 -1.46,-0.58 -0.41,-0.37 -0.61,-0.85 -0.61,-1.44l0 -10.33c-0.83,1.58 -1.8,3.12 -2.95,4.65 -1.15,1.53 -2.39,2.9 -3.78,4.09 -1.39,1.19 -2.87,2.17 -4.46,2.9 -1.61,0.76 -3.29,1.12 -5.04,1.12 -2.56,0 -4.58,-0.68 -6.11,-2.07 -1.53,-1.36 -2.31,-3.36 -2.31,-5.99 0,-1.83 0.39,-3.58 1.14,-5.21 0.76,-1.63 1.78,-3.14 3.07,-4.51 1.27,-1.34 2.73,-2.56 4.41,-3.63 1.66,-1.05 3.39,-1.95 5.19,-2.68 1.8,-0.71 3.61,-1.27 5.43,-1.68 1.8,-0.39 3.51,-0.58 5.09,-0.58l0.37 0c0.37,0 0.78,0 1.24,0.02 0.46,0.02 0.88,0.1 1.29,0.22 0.39,0.15 0.71,0.39 0.97,0.71 0.27,0.32 0.39,0.78 0.39,1.36l0 21.6zm-20.17 -1.39c1.39,0 2.7,-0.29 3.95,-0.85 1.24,-0.56 2.39,-1.32 3.46,-2.27 1.07,-0.95 2.07,-2.05 2.97,-3.29 0.9,-1.24 1.73,-2.53 2.44,-3.92 0.71,-1.36 1.34,-2.75 1.85,-4.19 0.51,-1.41 0.92,-2.78 1.24,-4.07 -1.31,0.02 -2.73,0.19 -4.26,0.49 -1.53,0.29 -3.04,0.71 -4.56,1.27 -1.51,0.56 -2.97,1.27 -4.36,2.09 -1.39,0.83 -2.63,1.75 -3.7,2.8 -1.1,1.05 -1.95,2.22 -2.58,3.51 -0.66,1.29 -0.97,2.68 -0.97,4.19 0,1.34 0.41,2.39 1.27,3.12 0.83,0.76 1.92,1.12 3.26,1.12zm37.09 12.69c-0.56,0 -1.02,-0.03 -1.39,-0.1 -0.39,-0.07 -0.71,-0.22 -0.93,-0.41 -0.22,-0.19 -0.39,-0.46 -0.46,-0.83 -0.07,-0.36 -0.12,-0.85 -0.12,-1.44l0 -31.81 -6.58 0c-0.58,0 -1.07,-0.2 -1.46,-0.56 -0.36,-0.37 -0.56,-0.83 -0.56,-1.44 0,-0.41 0.12,-0.75 0.39,-1.02 0.27,-0.24 0.66,-0.44 1.12,-0.61 0.46,-0.15 0.97,-0.24 1.58,-0.32 0.61,-0.05 1.24,-0.07 1.9,-0.07 0.46,0 0.97,0 1.49,0.02 0.51,0.03 1,0.03 1.46,0.05 0.05,0 0.15,0 0.27,0.02 0.12,0.03 0.24,0.03 0.32,0.03l0.07 0 0 -36.29c0,-0.46 0.1,-0.83 0.32,-1.12 0.22,-0.29 0.46,-0.51 0.75,-0.66 0.29,-0.12 0.61,-0.22 0.95,-0.29 0.32,-0.05 0.61,-0.07 0.88,-0.07l15.81 0c3.43,0 6.65,0.44 9.69,1.34 3.02,0.9 5.68,2.24 7.94,4.04 2.26,1.83 4.04,4.09 5.38,6.82 1.34,2.75 2,5.97 2,9.69 0,2.19 -0.34,4.26 -1,6.19 -0.68,1.95 -1.63,3.75 -2.82,5.38 -1.19,1.63 -2.61,3.07 -4.24,4.31 -1.63,1.24 -3.38,2.26 -5.31,3.04 1.39,0.85 2.65,1.85 3.75,3 1.1,1.17 2.05,2.46 2.8,3.87 0.76,1.41 1.32,2.92 1.73,4.51 0.41,1.58 0.61,3.24 0.61,4.94 0,3.51 -0.56,6.5 -1.66,8.99 -1.1,2.48 -2.63,4.53 -4.6,6.14 -1.97,1.58 -4.34,2.78 -7.06,3.53 -2.73,0.76 -5.7,1.12 -8.91,1.12l-14.1 0zm1.12 -34.59l0 30.66 10.91 0c1.27,0 2.56,-0.02 3.87,-0.07 1.31,-0.07 2.63,-0.22 3.97,-0.46 1.97,-0.36 3.73,-0.97 5.26,-1.88 1.53,-0.9 2.85,-2.02 3.9,-3.34 1.05,-1.32 1.88,-2.82 2.44,-4.51 0.56,-1.68 0.83,-3.53 0.83,-5.5 0,-2.31 -0.34,-4.38 -1.02,-6.24 -0.68,-1.83 -1.68,-3.38 -2.97,-4.68 -1.29,-1.29 -2.87,-2.26 -4.73,-2.97 -1.85,-0.68 -3.92,-1.02 -6.21,-1.02l-16.25 0zm0 -38.29l0 34.44 14.96 0c1.44,0 2.87,-0.02 4.33,-0.1 1.44,-0.05 2.8,-0.27 4.04,-0.63 1.83,-0.46 3.48,-1.19 4.99,-2.19 1.51,-1 2.82,-2.19 3.92,-3.58 1.1,-1.39 1.92,-2.92 2.53,-4.6 0.61,-1.68 0.9,-3.48 0.9,-5.38 0,-2.9 -0.53,-5.46 -1.58,-7.67 -1.05,-2.22 -2.48,-4.09 -4.29,-5.63 -1.83,-1.51 -3.95,-2.65 -6.36,-3.46 -2.41,-0.8 -5.02,-1.19 -7.79,-1.19l-15.66 0zm72.17 61.57c0,0.59 -0.12,1.07 -0.37,1.44 -0.27,0.39 -0.76,0.58 -1.51,0.58 -0.59,0 -1.07,-0.19 -1.46,-0.58 -0.41,-0.37 -0.61,-0.85 -0.61,-1.44l0 -10.33c-0.83,1.58 -1.8,3.12 -2.95,4.65 -1.15,1.53 -2.39,2.9 -3.77,4.09 -1.39,1.19 -2.87,2.17 -4.46,2.9 -1.61,0.76 -3.29,1.12 -5.04,1.12 -2.56,0 -4.58,-0.68 -6.11,-2.07 -1.53,-1.36 -2.31,-3.36 -2.31,-5.99 0,-1.83 0.39,-3.58 1.15,-5.21 0.75,-1.63 1.78,-3.14 3.07,-4.51 1.27,-1.34 2.73,-2.56 4.41,-3.63 1.66,-1.05 3.38,-1.95 5.19,-2.68 1.8,-0.71 3.6,-1.27 5.43,-1.68 1.8,-0.39 3.51,-0.58 5.09,-0.58l0.37 0c0.36,0 0.78,0 1.24,0.02 0.46,0.02 0.88,0.1 1.29,0.22 0.39,0.15 0.71,0.39 0.97,0.71 0.27,0.32 0.39,0.78 0.39,1.36l0 21.6zm-20.17 -1.39c1.39,0 2.7,-0.29 3.95,-0.85 1.24,-0.56 2.39,-1.32 3.46,-2.27 1.07,-0.95 2.07,-2.05 2.97,-3.29 0.9,-1.24 1.73,-2.53 2.44,-3.92 0.71,-1.36 1.34,-2.75 1.85,-4.19 0.51,-1.41 0.93,-2.78 1.24,-4.07 -1.32,0.02 -2.73,0.19 -4.26,0.49 -1.53,0.29 -3.04,0.71 -4.56,1.27 -1.51,0.56 -2.97,1.27 -4.36,2.09 -1.39,0.83 -2.63,1.75 -3.7,2.8 -1.1,1.05 -1.95,2.22 -2.58,3.51 -0.66,1.29 -0.97,2.68 -0.97,4.19 0,1.34 0.41,2.39 1.27,3.12 0.83,0.76 1.92,1.12 3.26,1.12zm35.29 -3.68c-0.02,0.56 0.22,1.05 0.76,1.49 0.54,0.46 1.22,0.85 2.05,1.17 0.8,0.32 1.71,0.59 2.68,0.76 0.95,0.17 1.85,0.27 2.7,0.27 1.36,0 2.66,-0.24 3.87,-0.71 1.22,-0.46 2.29,-1.14 3.19,-2 0.9,-0.85 1.63,-1.85 2.14,-3.02 0.51,-1.15 0.78,-2.44 0.78,-3.82 0,-1.41 -0.24,-2.68 -0.73,-3.8 -0.51,-1.1 -1.17,-2.05 -2.02,-2.83 -0.85,-0.75 -1.88,-1.36 -3.02,-1.78 -1.17,-0.41 -2.44,-0.63 -3.8,-0.63 -1.53,0 -3.04,0.29 -4.51,0.88 -1.49,0.61 -2.85,1.32 -4.09,2.12l0 11.91zm0 -16.32c1.34,-0.73 2.78,-1.32 4.26,-1.78 1.49,-0.44 3.02,-0.66 4.58,-0.66 2,0 3.82,0.29 5.46,0.9 1.63,0.61 3.02,1.46 4.19,2.58 1.15,1.12 2.05,2.48 2.7,4.09 0.63,1.61 0.95,3.44 0.95,5.48 0,1.9 -0.37,3.65 -1.07,5.26 -0.73,1.63 -1.73,3.02 -2.97,4.19 -1.27,1.19 -2.73,2.09 -4.38,2.75 -1.68,0.66 -3.44,1 -5.29,1 -0.59,0 -1.29,-0.05 -2.12,-0.17 -0.85,-0.12 -1.73,-0.29 -2.63,-0.54 -0.9,-0.22 -1.8,-0.54 -2.7,-0.9 -0.9,-0.37 -1.71,-0.8 -2.41,-1.32 -0.71,-0.51 -1.29,-1.1 -1.75,-1.8 -0.46,-0.68 -0.68,-1.44 -0.68,-2.29l0 -57.75c0,-0.61 0.17,-1.12 0.49,-1.51 0.32,-0.36 0.8,-0.56 1.46,-0.56 0.76,0 1.27,0.22 1.53,0.66 0.27,0.46 0.39,0.93 0.39,1.41l0 40.94zm46.16 21.56c-1.1,0.61 -2.26,1.14 -3.51,1.58 -1.27,0.46 -2.56,0.68 -3.87,0.68 -1.92,0 -3.48,-0.37 -4.65,-1.07 -1.19,-0.71 -2.09,-1.66 -2.75,-2.82 -0.66,-1.17 -1.12,-2.51 -1.34,-4 -0.22,-1.49 -0.34,-3 -0.34,-4.53l0 -11.79c0,-0.63 0.2,-1.14 0.59,-1.51 0.36,-0.37 0.85,-0.54 1.44,-0.54 0.8,0 1.32,0.17 1.53,0.54 0.22,0.37 0.32,0.88 0.32,1.51l0 11.89c0,0.97 0.07,1.97 0.19,2.97 0.12,1 0.37,1.92 0.76,2.73 0.37,0.8 0.9,1.49 1.58,2 0.68,0.54 1.58,0.8 2.68,0.8 1.32,0 2.58,-0.27 3.82,-0.8 1.22,-0.51 2.41,-1.15 3.56,-1.88l0 -17.71c0,-0.56 0.19,-1.02 0.58,-1.44 0.39,-0.41 0.85,-0.61 1.41,-0.61 0.8,0 1.32,0.17 1.56,0.54 0.22,0.37 0.34,0.88 0.34,1.51l0 15.27c0.22,-0.12 0.44,-0.22 0.66,-0.32 0.22,-0.1 0.41,-0.17 0.63,-0.22 0.07,-0.02 0.14,-0.02 0.27,0 0.12,0.02 0.19,0.05 0.24,0.07 0.27,0.17 0.54,0.41 0.8,0.73 0.24,0.32 0.37,0.68 0.37,1.07 0,0.27 -0.1,0.54 -0.29,0.8 -0.19,0.27 -0.44,0.54 -0.75,0.8 -0.32,0.27 -0.63,0.54 -0.97,0.75 -0.37,0.24 -0.68,0.46 -0.95,0.63l0 12.15c0,2.26 -0.66,4.04 -1.95,5.33 -1.29,1.29 -3.07,1.92 -5.31,1.92 -0.56,0 -1.02,-0.12 -1.36,-0.34 -0.37,-0.24 -0.54,-0.73 -0.54,-1.46 0,-0.41 0.07,-0.76 0.24,-1 0.15,-0.27 0.34,-0.44 0.61,-0.56 0.24,-0.12 0.51,-0.22 0.83,-0.24 0.29,-0.03 0.56,-0.03 0.8,0l0.12 0c0.66,0 1.14,-0.17 1.51,-0.51 0.34,-0.37 0.61,-0.8 0.78,-1.34 0.17,-0.56 0.27,-1.15 0.32,-1.8 0.02,-0.66 0.05,-1.29 0.05,-1.88l0 -7.94z"/>
  <path class="fil1" d="M551.91 57.65c0,0.46 -0.15,0.88 -0.46,1.29 -0.32,0.41 -0.78,0.61 -1.34,0.61 -0.32,0 -0.59,-0.07 -0.85,-0.22 -0.27,-0.14 -0.49,-0.29 -0.68,-0.41 -0.9,-0.61 -1.88,-1.29 -2.9,-2 -1.05,-0.71 -2.09,-1.41 -3.19,-2.09 -1.1,-0.66 -2.17,-1.29 -3.24,-1.85 -1.1,-0.56 -2.12,-1.02 -3.07,-1.36 -1.63,-0.51 -3.41,-0.93 -5.33,-1.27 -1.92,-0.32 -3.75,-0.49 -5.53,-0.49 -3.24,0 -6.36,0.41 -9.33,1.24 -2.97,0.85 -5.75,2.02 -8.36,3.56 -2.61,1.53 -4.99,3.36 -7.11,5.48 -2.12,2.12 -3.95,4.51 -5.46,7.11 -1.53,2.61 -2.7,5.41 -3.53,8.4 -0.83,3 -1.24,6.11 -1.24,9.35 0,3.17 0.44,6.24 1.29,9.18 0.85,2.97 2.05,5.75 3.58,8.35 1.53,2.61 3.36,4.97 5.5,7.11 2.14,2.14 4.51,3.99 7.11,5.53 2.61,1.53 5.38,2.73 8.36,3.58 2.97,0.85 6.04,1.27 9.18,1.27 8.5,0 16,-2.7 22.5,-8.09 0.1,-0.07 0.24,-0.19 0.41,-0.32 0.17,-0.12 0.34,-0.27 0.54,-0.39 0.2,-0.12 0.39,-0.22 0.59,-0.32 0.19,-0.1 0.39,-0.15 0.56,-0.15 0.63,0 1.1,0.2 1.41,0.56 0.32,0.37 0.46,0.8 0.46,1.32 0,0.46 -0.1,0.8 -0.27,1.05 -0.17,0.27 -0.39,0.51 -0.61,0.73 -1.46,1.44 -3.24,2.78 -5.33,3.97 -2.09,1.19 -4.31,2.19 -6.65,3.04 -2.34,0.83 -4.68,1.46 -7.04,1.92 -2.36,0.44 -4.55,0.66 -6.58,0.66 -3.53,0 -6.92,-0.46 -10.21,-1.41 -3.29,-0.95 -6.38,-2.29 -9.26,-3.99 -2.87,-1.71 -5.5,-3.75 -7.89,-6.16 -2.41,-2.41 -4.46,-5.04 -6.19,-7.94 -1.73,-2.87 -3.04,-5.97 -3.99,-9.28 -0.95,-3.29 -1.44,-6.7 -1.44,-10.23 0,-3.58 0.46,-7.02 1.41,-10.35 0.92,-3.34 2.24,-6.43 3.94,-9.33 1.68,-2.87 3.73,-5.5 6.11,-7.89 2.36,-2.36 4.99,-4.41 7.87,-6.09 2.87,-1.68 5.97,-3 9.3,-3.95 3.31,-0.95 6.75,-1.41 10.33,-1.41 2.26,0 4.55,0.22 6.84,0.66 2.26,0.44 4.51,1.07 6.67,1.88 2.17,0.83 4.24,1.83 6.24,3.02 2,1.19 3.87,2.56 5.6,4.07l-0.05 -0.05c0.54,0.44 0.97,1 1.29,1.68l0 0.41zm34.32 54.7c0,0.59 -0.12,1.07 -0.37,1.44 -0.27,0.39 -0.75,0.58 -1.51,0.58 -0.59,0 -1.07,-0.19 -1.46,-0.58 -0.41,-0.37 -0.61,-0.85 -0.61,-1.44l0 -10.33c-0.83,1.58 -1.8,3.12 -2.95,4.65 -1.14,1.53 -2.39,2.9 -3.77,4.09 -1.39,1.19 -2.87,2.17 -4.46,2.9 -1.61,0.76 -3.29,1.12 -5.04,1.12 -2.56,0 -4.58,-0.68 -6.11,-2.07 -1.53,-1.36 -2.31,-3.36 -2.31,-5.99 0,-1.83 0.39,-3.58 1.15,-5.21 0.76,-1.63 1.78,-3.14 3.07,-4.51 1.27,-1.34 2.73,-2.56 4.41,-3.63 1.66,-1.05 3.39,-1.95 5.19,-2.68 1.8,-0.71 3.6,-1.27 5.43,-1.68 1.8,-0.39 3.51,-0.58 5.09,-0.58l0.37 0c0.37,0 0.78,0 1.24,0.02 0.46,0.02 0.88,0.1 1.29,0.22 0.39,0.15 0.71,0.39 0.97,0.71 0.27,0.32 0.39,0.78 0.39,1.36l0 21.6zm-20.17 -1.39c1.39,0 2.7,-0.29 3.94,-0.85 1.24,-0.56 2.39,-1.32 3.46,-2.27 1.07,-0.95 2.07,-2.05 2.97,-3.29 0.9,-1.24 1.73,-2.53 2.44,-3.92 0.71,-1.36 1.34,-2.75 1.85,-4.19 0.51,-1.41 0.93,-2.78 1.24,-4.07 -1.32,0.02 -2.73,0.19 -4.26,0.49 -1.53,0.29 -3.04,0.71 -4.55,1.27 -1.51,0.56 -2.97,1.27 -4.36,2.09 -1.39,0.83 -2.63,1.75 -3.7,2.8 -1.1,1.05 -1.95,2.22 -2.58,3.51 -0.66,1.29 -0.97,2.68 -0.97,4.19 0,1.34 0.41,2.39 1.27,3.12 0.83,0.76 1.92,1.12 3.26,1.12zm33.73 -18.58c-0.34,0 -0.68,0.07 -1.05,0.19 -0.37,0.12 -0.73,0.29 -1.1,0.51 -0.39,0.22 -0.76,0.44 -1.1,0.66 -0.37,0.24 -0.68,0.49 -0.95,0.71 -0.46,0.32 -0.9,0.59 -1.27,0.78 -0.39,0.2 -0.71,0.29 -0.95,0.29 -0.41,0 -0.8,-0.15 -1.12,-0.41 -0.32,-0.27 -0.56,-0.56 -0.68,-0.88 0,-0.58 0.34,-1.22 1.02,-1.88 0.68,-0.66 1.51,-1.27 2.46,-1.85 0.95,-0.56 1.88,-1.05 2.82,-1.41 0.93,-0.37 1.66,-0.56 2.17,-0.56 1.02,0 1.85,0.17 2.51,0.49 0.63,0.34 1.15,0.78 1.53,1.32 0.37,0.56 0.63,1.19 0.8,1.9 0.15,0.71 0.24,1.44 0.29,2.17 0.73,-0.66 1.51,-1.36 2.34,-2.07 0.83,-0.71 1.68,-1.34 2.58,-1.9 0.9,-0.56 1.8,-1.02 2.75,-1.39 0.93,-0.34 1.88,-0.51 2.87,-0.51 2.07,0 3.7,0.63 4.92,1.9 1.22,1.29 1.83,2.95 1.83,4.97 0,0.71 -0.15,1.49 -0.41,2.34 -0.27,0.88 -0.68,1.71 -1.19,2.46 -0.51,0.78 -1.15,1.44 -1.85,1.95 -0.71,0.51 -1.51,0.78 -2.36,0.78 -0.56,0 -1,-0.17 -1.27,-0.54 -0.27,-0.34 -0.41,-0.75 -0.41,-1.24 0,-0.46 0.1,-0.8 0.29,-0.97 0.19,-0.17 0.44,-0.34 0.76,-0.54l0.41 -0.29 -0.05 0.05c0.22,-0.15 0.49,-0.32 0.76,-0.51 0.27,-0.19 0.51,-0.44 0.76,-0.71 0.22,-0.27 0.41,-0.61 0.58,-1 0.15,-0.39 0.22,-0.83 0.22,-1.34 0,-1.07 -0.27,-1.92 -0.83,-2.53 -0.56,-0.61 -1.39,-0.92 -2.44,-0.92 -0.73,0 -1.56,0.27 -2.51,0.78 -0.95,0.51 -1.88,1.14 -2.8,1.9 -0.95,0.76 -1.85,1.56 -2.7,2.36 -0.88,0.8 -1.61,1.51 -2.19,2.09l0 12.84c0,0.59 -0.2,1.07 -0.61,1.44 -0.41,0.39 -0.88,0.58 -1.41,0.58 -0.83,0 -1.34,-0.19 -1.53,-0.58 -0.2,-0.37 -0.29,-0.85 -0.29,-1.44l0 -16.27c0,-0.39 0,-0.8 -0.02,-1.24 -0.02,-0.44 -0.07,-0.83 -0.17,-1.19 -0.1,-0.37 -0.27,-0.66 -0.49,-0.9 -0.22,-0.24 -0.53,-0.36 -0.93,-0.36zm47.4 6.79c-0.46,-2.09 -1.49,-3.78 -3.04,-5.02 -1.58,-1.24 -3.46,-1.85 -5.68,-1.85 -1.1,0 -2.12,0.14 -3.07,0.46 -0.97,0.32 -1.83,0.78 -2.58,1.39 -0.76,0.61 -1.41,1.34 -1.95,2.17 -0.54,0.85 -0.9,1.78 -1.12,2.83l17.44 0.02zm-17.61 3.82c0.22,2.51 1.17,4.46 2.85,5.82 1.66,1.39 3.8,2.07 6.41,2.07 0.93,0 1.78,-0.12 2.58,-0.34 0.8,-0.22 1.51,-0.51 2.17,-0.83 0.66,-0.32 1.22,-0.66 1.73,-1.02 0.51,-0.36 0.93,-0.68 1.29,-1 0.39,-0.34 0.75,-0.63 1.07,-0.85 0.32,-0.22 0.68,-0.32 1.07,-0.32 0.51,0 0.93,0.17 1.29,0.54 0.34,0.37 0.51,0.8 0.51,1.32 0,0.39 -0.07,0.73 -0.19,1.02 -0.15,0.29 -0.34,0.56 -0.56,0.78 -1.66,1.63 -3.36,2.83 -5.12,3.53 -1.78,0.71 -3.82,1.07 -6.14,1.07 -2.02,0 -3.82,-0.32 -5.43,-0.97 -1.61,-0.63 -2.97,-1.53 -4.07,-2.68 -1.1,-1.15 -1.95,-2.51 -2.56,-4.14 -0.61,-1.63 -0.9,-3.43 -0.9,-5.41 0,-1.92 0.34,-3.68 1,-5.29 0.66,-1.61 1.56,-3 2.73,-4.17 1.15,-1.14 2.53,-2.07 4.14,-2.73 1.61,-0.66 3.36,-0.97 5.26,-0.97 1.66,0 3.24,0.32 4.75,0.97 1.51,0.66 2.85,1.56 3.99,2.65 1.15,1.1 2.05,2.41 2.75,3.9 0.68,1.51 1.02,3.09 1.02,4.77 0,0.8 -0.19,1.39 -0.59,1.73 -0.41,0.37 -0.97,0.54 -1.73,0.54l-19.34 0z"/>
  <path class="fil2" d="M23.88 130.22c-2.52,-0.66 -4.94,-1.59 -7.16,-2.85 -2.21,-1.25 -4.22,-2.82 -5.88,-4.7 -0.84,-0.94 -1.59,-1.95 -2.25,-3.02 -0.67,-1.07 -1.24,-2.2 -1.73,-3.38 -0.06,-0.15 -0.13,-0.29 -0.18,-0.44 -0.06,-0.15 -0.11,-0.3 -0.2,-0.44 -0.09,-0.13 -0.19,-0.27 -0.24,-0.42l-0.15 -0.46c-0.18,-0.62 -0.37,-1.24 -0.51,-1.87 -0.3,-1.26 -0.52,-2.54 -0.67,-3.84 -0.3,-2.6 -0.3,-5.25 -0.08,-7.89 0.45,-5.29 1.77,-10.55 3.65,-15.59 0.63,-1.68 1.32,-3.33 2.07,-4.96 -0.05,5.09 0.38,10.18 1.23,15.18 0.48,2.83 1.1,5.63 1.84,8.4 0.18,0.69 0.38,1.38 0.58,2.07l0.31 1.03c0.11,0.34 0.23,0.68 0.35,1.02 0.49,1.34 0.97,2.69 1.5,4.02 2.11,5.32 4.74,10.4 7.81,15.24 0.76,1.19 1.56,2.38 2.4,3.53 -0.91,-0.17 -1.8,-0.37 -2.68,-0.61zm0.71 -82.46c2.56,-4.83 5.4,-9.52 8.51,-13.99 3.11,-4.46 6.48,-8.71 10.14,-12.59 3.67,-3.85 7.65,-7.34 11.98,-9.91 2.16,-1.29 4.42,-2.27 6.69,-2.99 1.14,-0.36 2.28,-0.65 3.44,-0.86 0.29,-0.04 0.58,-0.09 0.87,-0.13 0.25,-0.04 0.45,-0.07 0.68,-0.08 0.45,-0.03 0.93,-0.02 1.41,0.04 0.96,0.12 1.95,0.42 2.83,0.91 0.88,0.49 1.65,1.15 2.17,1.9 0.52,0.76 0.79,1.58 0.77,2.4 -0.01,0.21 -0.03,0.41 -0.08,0.62 -0.05,0.22 -0.1,0.37 -0.22,0.7 -0.21,0.59 -0.47,1.16 -0.75,1.72 -0.57,1.11 -1.25,2.17 -1.96,3.19 -0.7,1.03 -1.42,2.05 -2.17,3.05 -1.52,2 -3.3,3.85 -5.27,5.52 -3.93,3.36 -8.54,6.06 -13.39,8.3 -0.61,0.28 -1.22,0.55 -1.83,0.82l-1.86 0.77 -1.89 0.73c-0.7,0.27 -1.39,0.55 -2.07,0.84 -2.73,1.19 -5.34,2.6 -7.81,4.19 -4.95,3.18 -9.37,7.02 -13.31,11.26 -0.01,0.01 -0.02,0.03 -0.03,0.04 0.98,-2.18 2.05,-4.34 3.17,-6.46zm18.31 74.85c0.01,-0.14 -0.01,-0.29 0.01,-0.44l0.03 -0.45c0.01,-0.15 0.04,-0.3 0.06,-0.45 0.03,-0.3 0.12,-0.61 0.17,-0.91 0.08,-0.3 0.15,-0.61 0.25,-0.91 0.78,-2.42 2.18,-4.71 3.94,-6.67 0.88,-0.98 1.85,-1.91 2.89,-2.75 1.05,-0.83 2.15,-1.59 3.3,-2.28 2.32,-1.36 4.81,-2.46 7.4,-3.28 2.34,-0.74 4.75,-1.26 7.2,-1.62l-0.14 0.24c-1.39,2.43 -2.79,4.82 -4.29,7.13 -1.5,2.3 -3.08,4.53 -4.83,6.54 -0.87,1.01 -1.79,1.92 -2.78,2.85 -0.99,0.9 -2,1.78 -3.07,2.59 -0.52,0.42 -1.07,0.8 -1.61,1.2 -0.55,0.38 -1.1,0.76 -1.67,1.12 -1.13,0.73 -2.28,1.41 -3.47,2.03 -0.85,0.45 -1.71,0.87 -2.58,1.27 -0.1,-0.31 -0.2,-0.63 -0.28,-0.96 -0.32,-1.22 -0.49,-2.5 -0.53,-3.8 -0.01,-0.17 -0.01,-0.31 -0.01,-0.46zm36.66 -32.22c1.5,-2.27 3.13,-4.45 5.06,-6.14 0.96,-0.84 2,-1.55 3.1,-1.98 0.55,-0.21 1.11,-0.36 1.68,-0.45 0.14,-0.03 0.28,-0.04 0.43,-0.05l0.21 -0.02c0.07,-0 0.12,0 0.18,-0 0.24,-0.01 0.48,0.01 0.71,0.06 0.93,0.16 1.82,0.75 2.47,1.6 0.65,0.85 1.06,1.95 1.09,3.04 0.01,0.27 -0.01,0.55 -0.03,0.81 -0.04,0.27 -0.09,0.52 -0.18,0.8 -0.16,0.55 -0.4,1.11 -0.7,1.65 -0.29,0.54 -0.64,1.06 -1.03,1.56 -0.39,0.5 -0.82,0.97 -1.27,1.43 -1.84,1.81 -4.12,3.23 -6.56,4.29 -2.45,1.05 -5.07,1.76 -7.75,2.17 -0.89,0.14 -1.77,0.24 -2.67,0.32 1.67,-3.13 3.37,-6.21 5.27,-9.11zm29.51 -9.97c-1.06,-2.82 -2.4,-5.53 -3.99,-8.08 -1.59,-2.55 -3.44,-4.93 -5.46,-7.12 -4.09,-4.33 -8.7,-8.17 -13.88,-10.93 -5.15,-2.8 -10.58,-4.91 -16.12,-6.47 -1.16,-0.33 -2.32,-0.63 -3.48,-0.91 4.25,-1.65 8.16,-4.16 11.39,-7.37 3.27,-3.24 5.82,-7.16 7.48,-11.41 1.67,-4.25 2.44,-8.81 2.36,-13.31 -0.01,-0.76 -0.63,-1.38 -1.39,-1.39 -0.78,-0.01 -1.42,0.61 -1.44,1.39 -0.07,4.16 -0.93,8.29 -2.57,12.07 -1.63,3.78 -4.04,7.2 -7.04,9.96 -2.99,2.78 -6.56,4.88 -10.4,6.2 -3.81,1.33 -7.87,1.85 -11.92,1.75l-0.02 0c-1.26,-0.13 -2.38,0.79 -2.52,2.05 -0.13,1.27 0.78,2.4 2.05,2.54l0.07 0.01 0.01 0 0.95 0.15 0.99 0.18c0.66,0.12 1.33,0.25 1.99,0.4 1.33,0.28 2.65,0.59 3.96,0.93 2.62,0.67 5.22,1.45 7.77,2.34 5.1,1.77 10.02,3.96 14.57,6.68 2.28,1.36 4.47,2.81 6.58,4.35 2.11,1.55 4.07,3.29 5.83,5.19 1.74,1.92 3.34,3.96 4.67,6.15 1.34,2.19 2.46,4.52 3.34,6.93 1.74,4.84 2.5,10.03 2.48,15.26 0,5.21 -0.84,10.39 -2.53,15.3 -1.66,4.92 -4.23,9.53 -7.48,13.61 -1.62,2.04 -3.44,3.93 -5.4,5.65 -1.97,1.72 -4.08,3.28 -6.33,4.62 -4.49,2.7 -9.49,4.58 -14.7,5.5 -5.21,0.91 -10.62,0.9 -15.86,-0.09 -5.23,-1 -10.31,-2.96 -14.85,-5.81 -0.66,-0.41 -1.3,-0.83 -1.93,-1.28 1.42,-0.37 2.81,-0.79 4.19,-1.28 0.64,-0.22 1.28,-0.46 1.91,-0.71 0.57,0.89 1.24,1.72 1.98,2.48 1.12,1.14 2.38,2.11 3.75,2.89 1.38,0.8 2.91,1.38 4.47,1.73 1.56,0.36 3.15,0.46 4.7,0.41 1.55,-0.06 3.07,-0.29 4.54,-0.61 1.46,-0.33 2.89,-0.76 4.27,-1.25 0.69,-0.24 1.37,-0.5 2.05,-0.76l1.01 -0.41c0.34,-0.15 0.68,-0.28 1.02,-0.44 5.39,-2.43 10.18,-5.87 14.37,-9.88 4.2,-4.01 7.78,-8.66 10.55,-13.76 2.77,-5.1 4.68,-10.68 5.49,-16.42 0.83,-5.73 0.54,-11.6 -0.74,-17.18 -0.12,-0.5 -0.61,-0.84 -1.13,-0.76 -0.49,0.08 -0.83,0.5 -0.83,0.98 0,0.05 0,0.11 0.01,0.16 0.89,5.44 0.91,10.99 -0.1,16.35 -0.5,2.68 -1.22,5.31 -2.18,7.85 -0.96,2.55 -2.14,5.01 -3.49,7.36 -1.36,2.35 -2.91,4.6 -4.62,6.71 -1.71,2.12 -3.56,4.11 -5.56,5.95 -2,1.84 -4.13,3.53 -6.37,5.04 -2.24,1.51 -4.59,2.85 -7.03,3.91 -0.3,0.14 -0.61,0.26 -0.92,0.39l-0.95 0.37c-0.64,0.24 -1.27,0.47 -1.91,0.69 -1.27,0.43 -2.55,0.8 -3.83,1.08 -2.55,0.56 -5.11,0.73 -7.48,0.22 -1.19,-0.25 -2.32,-0.67 -3.38,-1.25 -1.08,-0.59 -2.09,-1.31 -2.97,-2.14 -0.42,-0.4 -0.81,-0.82 -1.16,-1.27 0.87,-0.41 1.72,-0.86 2.57,-1.32 1.29,-0.71 2.55,-1.47 3.77,-2.3 0.62,-0.4 1.21,-0.83 1.81,-1.26 0.58,-0.44 1.18,-0.88 1.74,-1.35 1.15,-0.91 2.24,-1.9 3.3,-2.92 1.04,-1.02 2.1,-2.11 3.03,-3.25 1.89,-2.27 3.52,-4.68 5.02,-7.13 1.5,-2.45 2.88,-4.94 4.23,-7.43 0.46,-0.86 0.92,-1.72 1.38,-2.58l0.3 -0.02c1.43,-0.09 2.88,-0.21 4.32,-0.43 2.87,-0.42 5.73,-1.16 8.45,-2.3 2.71,-1.15 5.31,-2.71 7.49,-4.83 0.54,-0.53 1.06,-1.1 1.54,-1.71 0.48,-0.61 0.92,-1.25 1.3,-1.94 0.39,-0.69 0.72,-1.43 0.96,-2.22 0.13,-0.39 0.22,-0.82 0.29,-1.25 0.06,-0.43 0.09,-0.86 0.09,-1.29 -0.04,-1.72 -0.57,-3.4 -1.57,-4.83 -0.5,-0.71 -1.13,-1.35 -1.87,-1.86 -0.37,-0.26 -0.77,-0.48 -1.2,-0.66 -0.42,-0.18 -0.87,-0.33 -1.33,-0.41 -0.45,-0.09 -0.92,-0.13 -1.38,-0.12 -0.11,0 -0.23,0.01 -0.34,0.01l-0.31 0.03c-0.21,0.02 -0.41,0.04 -0.62,0.08 -0.82,0.14 -1.62,0.37 -2.37,0.68 -1.51,0.61 -2.84,1.49 -4.02,2.47 -2.35,1.98 -4.15,4.33 -5.8,6.7 -1.64,2.38 -3.1,4.83 -4.51,7.29l-2.34 4.12c-0.42,0.04 -0.84,0.09 -1.25,0.14 -2.85,0.38 -5.69,0.99 -8.46,1.85 -2.77,0.85 -5.46,2.01 -8,3.48 -1.26,0.75 -2.48,1.57 -3.64,2.48 -1.16,0.92 -2.26,1.91 -3.27,3 -2.01,2.18 -3.73,4.7 -4.78,7.61 -0.14,0.36 -0.24,0.74 -0.36,1.11 -0.09,0.38 -0.21,0.76 -0.28,1.15 -0.03,0.19 -0.08,0.39 -0.11,0.59l-0.07 0.6c-0.03,0.2 -0.03,0.41 -0.05,0.61 -0.01,0.21 -0.02,0.41 -0.02,0.6 -0.02,1.51 0.11,3.04 0.43,4.56 0.11,0.51 0.24,1.03 0.39,1.54 -0.49,0.18 -0.98,0.35 -1.47,0.52 -1.27,0.42 -2.56,0.79 -3.85,1.1 -0.65,0.16 -1.3,0.29 -1.94,0.41 -0.32,0.06 -0.65,0.12 -0.97,0.17l-0.47 0.07 -0.2 0.02c-0.74,-0.8 -1.43,-1.71 -2.08,-2.63 -0.77,-1.09 -1.48,-2.24 -2.15,-3.42 -1.34,-2.36 -2.5,-4.83 -3.53,-7.35 -1.04,-2.52 -1.96,-5.08 -2.79,-7.67 -0.42,-1.29 -0.81,-2.59 -1.16,-3.91 -0.17,-0.66 -0.35,-1.31 -0.55,-1.96 -0.18,-0.65 -0.37,-1.3 -0.54,-1.96 -0.69,-2.62 -1.26,-5.27 -1.72,-7.94 -0.92,-5.34 -1.34,-10.75 -1.18,-16.13 0.1,-3.08 0.4,-6.16 0.93,-9.18 2.65,-3.98 5.65,-7.72 8.96,-11.14 3.73,-3.85 7.87,-7.29 12.36,-10.05 2.25,-1.38 4.59,-2.59 6.99,-3.57 0.6,-0.25 1.21,-0.48 1.82,-0.7l2.02 -0.75 2.01 -0.8c0.67,-0.29 1.34,-0.56 2,-0.85 2.65,-1.17 5.26,-2.49 7.79,-3.98 2.52,-1.51 4.97,-3.19 7.27,-5.11 2.3,-1.92 4.44,-4.08 6.33,-6.5 0.94,-1.21 1.8,-2.5 2.49,-3.89 0.69,-1.38 1.24,-2.84 1.71,-4.31 0.23,-0.74 0.45,-1.48 0.65,-2.23 0.1,-0.33 0.22,-0.85 0.31,-1.32 0.09,-0.48 0.14,-0.97 0.16,-1.46 0.11,-1.97 -0.44,-3.94 -1.35,-5.57 -0.92,-1.64 -2.16,-3 -3.58,-4.09 -1.42,-1.09 -3.03,-1.93 -4.78,-2.45 -0.88,-0.26 -1.79,-0.44 -2.73,-0.53 -0.46,-0.05 -0.96,-0.05 -1.41,-0.05 -0.4,0.01 -0.81,0.03 -1.21,0.04 -1.61,0.1 -3.21,0.37 -4.75,0.77 -3.09,0.82 -5.95,2.18 -8.57,3.75 -2.62,1.59 -5.03,3.41 -7.25,5.38 -1.11,0.99 -2.18,2.01 -3.21,3.05 -1.03,1.05 -2.02,2.13 -2.98,3.22 -1.92,2.19 -3.71,4.47 -5.39,6.81 -1.69,2.33 -3.27,4.72 -4.77,7.15 -3.01,4.86 -5.72,9.87 -8.18,14.99 -1.23,2.57 -2.4,5.16 -3.49,7.81 -0.55,1.32 -1.06,2.69 -1.53,4.07 -0.46,1.38 -0.9,2.76 -1.27,4.17 -0.39,1.4 -0.71,2.81 -1.02,4.23 -0.09,0.44 -0.17,0.88 -0.25,1.32 -0.26,0.41 -0.52,0.83 -0.77,1.25 -2.98,4.93 -5.46,10.14 -7.37,15.59 -1.9,5.44 -3.23,11.13 -3.61,16.96 -0.19,2.91 -0.13,5.87 0.26,8.8 0.19,1.47 0.47,2.93 0.85,4.37 0.18,0.72 0.4,1.44 0.64,2.15l0.18 0.53c0.06,0.18 0.07,0.38 0.1,0.56 0.03,0.19 0.1,0.36 0.17,0.54 0.07,0.18 0.14,0.35 0.21,0.53 1.13,2.81 2.71,5.47 4.73,7.78 2,2.32 4.43,4.27 7.05,5.78 2.63,1.51 5.46,2.6 8.33,3.36 2.87,0.75 5.79,1.17 8.7,1.38l0.06 0.01c0.09,0.01 0.19,0 0.29,-0.01 0.35,0.3 0.7,0.59 1.07,0.87 1.14,0.9 2.31,1.74 3.52,2.53 2.42,1.59 4.99,2.96 7.66,4.1 2.67,1.14 5.45,2.03 8.28,2.69 5.68,1.31 11.59,1.59 17.41,0.84 5.81,-0.77 11.53,-2.59 16.72,-5.43 2.59,-1.41 5.07,-3.06 7.37,-4.93 2.3,-1.87 4.44,-3.95 6.37,-6.2 3.87,-4.5 6.91,-9.73 8.98,-15.32 2.05,-5.6 3.1,-11.58 3.06,-17.52 0.01,-5.91 -0.94,-11.91 -3.05,-17.55z"/>
  <path class="fil3" d="M90.16 78.5c-0.11,0 -0.24,0.01 -0.34,0.01l0 0 -0.31 0.03c-0.21,0.02 -0.41,0.04 -0.62,0.08l0 0c-0.82,0.14 -1.62,0.37 -2.37,0.68l0 0c-1.51,0.61 -2.84,1.49 -4.02,2.47l0 0c-2.35,1.98 -4.15,4.33 -5.8,6.7l0 0c-1.64,2.38 -3.1,4.83 -4.51,7.29l0 0 -2.34 4.12c-0.42,0.04 -0.84,0.09 -1.25,0.14l0 0c-2.85,0.38 -5.69,0.99 -8.46,1.85l0 0c-2.77,0.85 -5.46,2.01 -8,3.48l0 0c-1.26,0.75 -2.48,1.57 -3.64,2.48l0 0c-1.16,0.92 -2.26,1.91 -3.27,3l0 0c-2.01,2.18 -3.73,4.7 -4.78,7.61l0 0c-0.13,0.36 -0.24,0.74 -0.36,1.11l0 0c-0.09,0.38 -0.21,0.76 -0.28,1.15l0 0c-0.03,0.19 -0.08,0.39 -0.11,0.59l0 0 -0.08 0.6c-0.03,0.2 -0.03,0.41 -0.05,0.61l0 0c-0.01,0.21 -0.02,0.41 -0.02,0.6l0 0c-0.02,1.51 0.11,3.04 0.43,4.56l0 0c0.11,0.51 0.24,1.03 0.39,1.54l0 0c-0.49,0.18 -0.98,0.35 -1.47,0.52l0 0c-1.27,0.42 -2.56,0.79 -3.85,1.1l0 0c-0.18,0.04 -0.36,0.09 -0.54,0.13 0.06,0.77 0.29,1.53 0.72,2.19l0 0c0.57,0.88 1.33,1.56 2.19,2.01l0 0c1.02,-0.29 2.02,-0.61 3.02,-0.96l0 0c0.64,-0.23 1.28,-0.46 1.91,-0.71l0 0c0.57,0.89 1.24,1.72 1.98,2.48l0 0c1.12,1.14 2.38,2.11 3.75,2.89l0 0c1.39,0.8 2.91,1.38 4.47,1.73l0 0c0.28,0.07 0.57,0.12 0.85,0.17l0 0c0.09,-0.01 0.17,-0.03 0.26,-0.04l0 0c0.04,0.02 0.07,0.04 0.11,0.06l0 0c0.04,0.02 0.08,0.04 0.12,0.06l0 0c1.13,0.16 2.26,0.2 3.37,0.16l0 0c1.55,-0.06 3.07,-0.29 4.54,-0.61l0 0c1.46,-0.33 2.89,-0.76 4.27,-1.25l0 0c0.69,-0.24 1.37,-0.5 2.05,-0.76l0 0 1.01 -0.41c0.34,-0.15 0.68,-0.28 1.02,-0.44l0 0c5.39,-2.43 10.18,-5.87 14.37,-9.88l0 0c4.2,-4.01 7.78,-8.66 10.55,-13.76l0 0c2.77,-5.1 4.68,-10.68 5.49,-16.42l0 0c0.83,-5.73 0.54,-11.6 -0.74,-17.18l0 0c-0.12,-0.5 -0.61,-0.84 -1.13,-0.76l0 0c-0.49,0.08 -0.83,0.5 -0.83,0.98l0 0c0,0.05 0,0.11 0.01,0.16l0 0c0.89,5.44 0.91,10.99 -0.1,16.35l0 0c-0.5,2.68 -1.22,5.31 -2.18,7.85l0 0c-0.96,2.55 -2.13,5.01 -3.49,7.36l0 0c-1.36,2.35 -2.91,4.6 -4.62,6.71l0 0c-1.71,2.12 -3.56,4.11 -5.56,5.95l0 0c-2,1.84 -4.13,3.53 -6.37,5.04l0 0c-2.24,1.51 -4.59,2.85 -7.04,3.91l0 0c-0.3,0.14 -0.61,0.26 -0.92,0.39l0 0 -0.95 0.37c-0.64,0.24 -1.27,0.47 -1.91,0.69l0 0c-1.27,0.43 -2.55,0.8 -3.83,1.08l0 0c-2.55,0.56 -5.11,0.73 -7.48,0.22l0 0c-1.19,-0.25 -2.32,-0.67 -3.38,-1.25l0 0c-1.07,-0.59 -2.09,-1.31 -2.97,-2.14l0 0c-0.42,-0.4 -0.81,-0.82 -1.16,-1.27l0 0c0.87,-0.41 1.72,-0.86 2.57,-1.32l0 0c1.29,-0.71 2.55,-1.47 3.77,-2.3l0 0c0.62,-0.4 1.21,-0.83 1.81,-1.26l0 0c0.58,-0.45 1.18,-0.88 1.74,-1.35l0 0c1.15,-0.91 2.24,-1.9 3.3,-2.92l0 0c1.04,-1.02 2.1,-2.11 3.03,-3.25l0 0c1.89,-2.27 3.52,-4.68 5.02,-7.12l0 0c1.5,-2.45 2.88,-4.94 4.23,-7.43l0 0c0.46,-0.86 0.92,-1.72 1.38,-2.58l0 0 0.3 -0.02c1.43,-0.09 2.88,-0.21 4.32,-0.43l0 0c2.87,-0.42 5.73,-1.16 8.45,-2.3l0 0c2.71,-1.15 5.31,-2.71 7.49,-4.83l0 0c0.54,-0.54 1.06,-1.1 1.54,-1.71l0 0c0.48,-0.61 0.92,-1.25 1.3,-1.94l0 0c0.39,-0.69 0.72,-1.43 0.96,-2.22l0 0c0.13,-0.39 0.22,-0.82 0.29,-1.25l0 0c0.06,-0.43 0.09,-0.86 0.09,-1.29l0 0c-0.04,-1.72 -0.57,-3.4 -1.57,-4.83l0 0c-0.5,-0.71 -1.13,-1.35 -1.87,-1.86l0 0c-0.37,-0.26 -0.77,-0.48 -1.2,-0.66l0 0c-0.42,-0.18 -0.87,-0.33 -1.33,-0.41l0 0c-0.41,-0.08 -0.83,-0.12 -1.25,-0.12l0 0c-0.05,0 -0.09,0 -0.14,0zm-10.6 11.89c1.5,-2.27 3.13,-4.45 5.06,-6.14l0 0c0.96,-0.84 2,-1.55 3.1,-1.98l0 0c0.55,-0.21 1.11,-0.36 1.68,-0.44l0 0c0.14,-0.03 0.28,-0.04 0.43,-0.05l0 0 0.21 -0.02c0.07,-0 0.12,0 0.18,-0l0 0c0.24,-0.01 0.48,0.01 0.71,0.06l0 0c0.93,0.16 1.82,0.75 2.47,1.6l0 0c0.65,0.85 1.06,1.95 1.09,3.04l0 0c0.01,0.27 -0.01,0.55 -0.03,0.81l0 0c-0.04,0.27 -0.09,0.52 -0.18,0.8l0 0c-0.16,0.55 -0.4,1.11 -0.7,1.65l0 0c-0.29,0.54 -0.64,1.06 -1.03,1.57l0 0c-0.39,0.5 -0.82,0.97 -1.27,1.43l0 0c-1.84,1.82 -4.12,3.24 -6.56,4.3l0 0c-2.45,1.05 -5.07,1.76 -7.75,2.17l0 0c-0.89,0.14 -1.77,0.24 -2.67,0.32l0 0c1.67,-3.13 3.37,-6.21 5.27,-9.11zm-36.12 36.47c-0.32,-1.22 -0.49,-2.5 -0.53,-3.8l0 0c-0.01,-0.17 -0.01,-0.31 -0.01,-0.46l0 0c0.01,-0.14 -0.01,-0.29 0.01,-0.44l0 0 0.03 -0.45c0.01,-0.15 0.04,-0.3 0.06,-0.45l0 0c0.03,-0.3 0.12,-0.61 0.17,-0.91l0 0c0.08,-0.3 0.15,-0.61 0.25,-0.91l0 0c0.78,-2.42 2.18,-4.71 3.94,-6.67l0 0c0.88,-0.98 1.85,-1.91 2.89,-2.75l0 0c1.05,-0.83 2.15,-1.59 3.3,-2.29l0 0c2.32,-1.36 4.81,-2.46 7.4,-3.28l0 0c2.34,-0.74 4.75,-1.26 7.2,-1.62l0 0 -0.14 0.24c-1.39,2.43 -2.79,4.82 -4.29,7.13l0 0c-1.5,2.3 -3.08,4.53 -4.83,6.54l0 0c-0.87,1.01 -1.79,1.92 -2.78,2.85l0 0c-0.99,0.9 -2,1.78 -3.07,2.59l0 0c-0.52,0.42 -1.07,0.8 -1.61,1.2l0 0c-0.56,0.38 -1.1,0.76 -1.67,1.12l0 0c-1.13,0.73 -2.28,1.41 -3.47,2.03l0 0c-0.85,0.45 -1.71,0.88 -2.58,1.27l0 0c-0.1,-0.31 -0.2,-0.63 -0.28,-0.96l0 0z"/>
 </g>
</svg>
