<?xml version="1.0" encoding="UTF-8"?>
<!DOCTYPE svg PUBLIC "-//W3C//DTD SVG 1.1//EN" "http://www.w3.org/Graphics/SVG/1.1/DTD/svg11.dtd">
<!-- Creator: CorelDRAW 2019 (64-Bit) -->
<svg xmlns="http://www.w3.org/2000/svg" xml:space="preserve" width="8.4304mm" height="11.1115mm" version="1.1" style="shape-rendering:geometricPrecision; text-rendering:geometricPrecision; image-rendering:optimizeQuality; fill-rule:evenodd; clip-rule:evenodd"
viewBox="0 0 19.3 25.44"
 xmlns:xlink="http://www.w3.org/1999/xlink">
 <defs>
  <style type="text/css">
   <![CDATA[
    .fil0 {fill:#D7A4DF;fill-rule:nonzero}
    .fil1 {fill:url(#id0)}
   ]]>
  </style>
  <linearGradient id="id0" gradientUnits="userSpaceOnUse" x1="17.68" y1="18.59" x2="5.94" y2="18.59">
   <stop offset="0" style="stop-opacity:1; stop-color:#FF6FC4"/>
   <stop offset="0.819608" style="stop-opacity:1; stop-color:#EB89D1"/>
   <stop offset="1" style="stop-opacity:1; stop-color:#D7A4DF"/>
  </linearGradient>
 </defs>
 <g id="Layer_x0020_1">
  <metadata id="CorelCorpID_0Corel-Layer"/>
  <path class="fil0" d="M4.11 22.42c-0.43,-0.11 -0.85,-0.27 -1.23,-0.49 -0.38,-0.21 -0.73,-0.49 -1.01,-0.81 -0.14,-0.16 -0.27,-0.34 -0.39,-0.52 -0.12,-0.18 -0.21,-0.38 -0.3,-0.58 -0.01,-0.03 -0.02,-0.05 -0.03,-0.08 -0.01,-0.03 -0.02,-0.05 -0.03,-0.08 -0.02,-0.02 -0.03,-0.05 -0.04,-0.07l-0.03 -0.08c-0.03,-0.11 -0.06,-0.21 -0.09,-0.32 -0.05,-0.22 -0.09,-0.44 -0.11,-0.66 -0.05,-0.45 -0.05,-0.9 -0.01,-1.36 0.08,-0.91 0.31,-1.82 0.63,-2.68 0.11,-0.29 0.23,-0.57 0.36,-0.85 -0.01,0.88 0.07,1.75 0.21,2.61 0.08,0.49 0.19,0.97 0.32,1.45 0.03,0.12 0.07,0.24 0.1,0.36l0.05 0.18c0.02,0.06 0.04,0.12 0.06,0.17 0.08,0.23 0.17,0.46 0.26,0.69 0.36,0.92 0.82,1.79 1.34,2.62 0.13,0.21 0.27,0.41 0.41,0.61 -0.16,-0.03 -0.31,-0.06 -0.46,-0.1zm0.12 -14.2c0.44,-0.83 0.93,-1.64 1.47,-2.41 0.53,-0.77 1.12,-1.5 1.75,-2.17 0.63,-0.66 1.32,-1.26 2.06,-1.71 0.37,-0.22 0.76,-0.39 1.15,-0.51 0.2,-0.06 0.39,-0.11 0.59,-0.15 0.05,-0.01 0.1,-0.02 0.15,-0.02 0.04,-0.01 0.08,-0.01 0.12,-0.01 0.08,-0.01 0.16,-0 0.24,0.01 0.16,0.02 0.34,0.07 0.49,0.16 0.15,0.08 0.28,0.2 0.37,0.33 0.09,0.13 0.14,0.27 0.13,0.41 -0,0.04 -0.01,0.07 -0.01,0.11 -0.01,0.04 -0.02,0.06 -0.04,0.12 -0.04,0.1 -0.08,0.2 -0.13,0.3 -0.1,0.19 -0.22,0.37 -0.34,0.55 -0.12,0.18 -0.24,0.35 -0.37,0.53 -0.26,0.34 -0.57,0.66 -0.91,0.95 -0.68,0.58 -1.47,1.04 -2.31,1.43 -0.1,0.05 -0.21,0.09 -0.32,0.14l-0.32 0.13 -0.33 0.13c-0.12,0.05 -0.24,0.09 -0.36,0.15 -0.47,0.2 -0.92,0.45 -1.34,0.72 -0.85,0.55 -1.61,1.21 -2.29,1.94 -0,0 -0,0 -0.01,0.01 0.17,-0.38 0.35,-0.75 0.55,-1.11zm3.15 12.89c0,-0.02 -0,-0.05 0,-0.08l0.01 -0.08c0,-0.03 0.01,-0.05 0.01,-0.08 0.01,-0.05 0.02,-0.1 0.03,-0.16 0.01,-0.05 0.03,-0.1 0.04,-0.16 0.13,-0.42 0.37,-0.81 0.68,-1.15 0.15,-0.17 0.32,-0.33 0.5,-0.47 0.18,-0.14 0.37,-0.27 0.57,-0.39 0.4,-0.23 0.83,-0.42 1.27,-0.56 0.4,-0.13 0.82,-0.22 1.24,-0.28l-0.02 0.04c-0.24,0.42 -0.48,0.83 -0.74,1.23 -0.26,0.4 -0.53,0.78 -0.83,1.13 -0.15,0.17 -0.31,0.33 -0.48,0.49 -0.17,0.16 -0.34,0.31 -0.53,0.45 -0.09,0.07 -0.19,0.14 -0.28,0.21 -0.1,0.06 -0.19,0.13 -0.29,0.19 -0.19,0.13 -0.39,0.24 -0.6,0.35 -0.15,0.08 -0.29,0.15 -0.44,0.22 -0.02,-0.05 -0.03,-0.11 -0.05,-0.16 -0.05,-0.21 -0.08,-0.43 -0.09,-0.65 -0,-0.03 -0,-0.05 -0,-0.08zm6.31 -5.55c0.26,-0.39 0.54,-0.77 0.87,-1.06 0.17,-0.14 0.34,-0.27 0.53,-0.34 0.09,-0.04 0.19,-0.06 0.29,-0.08 0.02,-0 0.05,-0.01 0.07,-0.01l0.04 -0c0.01,-0 0.02,0 0.03,-0 0.04,-0 0.08,0 0.12,0.01 0.16,0.03 0.31,0.13 0.43,0.28 0.11,0.15 0.18,0.34 0.19,0.52 0,0.05 -0,0.09 -0.01,0.14 -0.01,0.05 -0.02,0.09 -0.03,0.14 -0.03,0.1 -0.07,0.19 -0.12,0.28 -0.05,0.09 -0.11,0.18 -0.18,0.27 -0.07,0.09 -0.14,0.17 -0.22,0.25 -0.32,0.31 -0.71,0.56 -1.13,0.74 -0.42,0.18 -0.87,0.3 -1.33,0.37 -0.15,0.02 -0.31,0.04 -0.46,0.06 0.29,-0.54 0.58,-1.07 0.91,-1.57zm5.08 -1.72c-0.18,-0.48 -0.41,-0.95 -0.69,-1.39 -0.27,-0.44 -0.59,-0.85 -0.94,-1.23 -0.7,-0.75 -1.5,-1.41 -2.39,-1.88 -0.89,-0.48 -1.82,-0.84 -2.78,-1.11 -0.2,-0.06 -0.4,-0.11 -0.6,-0.16 0.73,-0.28 1.41,-0.72 1.96,-1.27 0.56,-0.56 1,-1.23 1.29,-1.96 0.29,-0.73 0.42,-1.52 0.41,-2.29 -0,-0.13 -0.11,-0.24 -0.24,-0.24 -0.13,-0 -0.24,0.1 -0.25,0.24 -0.01,0.72 -0.16,1.43 -0.44,2.08 -0.28,0.65 -0.7,1.24 -1.21,1.72 -0.51,0.48 -1.13,0.84 -1.79,1.07 -0.66,0.23 -1.36,0.32 -2.05,0.3l-0 0c-0.22,-0.02 -0.41,0.14 -0.43,0.35 -0.02,0.22 0.13,0.41 0.35,0.44l0.01 0 0 0 0.16 0.03 0.17 0.03c0.11,0.02 0.23,0.04 0.34,0.07 0.23,0.05 0.46,0.1 0.68,0.16 0.45,0.12 0.9,0.25 1.34,0.4 0.88,0.31 1.73,0.68 2.51,1.15 0.39,0.23 0.77,0.48 1.13,0.75 0.36,0.27 0.7,0.57 1,0.89 0.3,0.33 0.57,0.68 0.8,1.06 0.23,0.38 0.42,0.78 0.57,1.19 0.3,0.83 0.43,1.73 0.43,2.63 0,0.9 -0.14,1.79 -0.44,2.63 -0.29,0.85 -0.73,1.64 -1.29,2.34 -0.28,0.35 -0.59,0.68 -0.93,0.97 -0.34,0.3 -0.7,0.56 -1.09,0.8 -0.77,0.47 -1.63,0.79 -2.53,0.95 -0.9,0.16 -1.83,0.15 -2.73,-0.02 -0.9,-0.17 -1.77,-0.51 -2.56,-1 -0.11,-0.07 -0.22,-0.14 -0.33,-0.22 0.24,-0.06 0.48,-0.14 0.72,-0.22 0.11,-0.04 0.22,-0.08 0.33,-0.12 0.1,0.15 0.21,0.3 0.34,0.43 0.19,0.2 0.41,0.36 0.65,0.5 0.24,0.14 0.5,0.24 0.77,0.3 0.27,0.06 0.54,0.08 0.81,0.07 0.27,-0.01 0.53,-0.05 0.78,-0.11 0.25,-0.06 0.5,-0.13 0.74,-0.21 0.12,-0.04 0.24,-0.09 0.35,-0.13l0.17 -0.07c0.06,-0.03 0.12,-0.05 0.18,-0.08 0.93,-0.42 1.75,-1.01 2.47,-1.7 0.72,-0.69 1.34,-1.49 1.82,-2.37 0.48,-0.88 0.81,-1.84 0.95,-2.83 0.14,-0.99 0.09,-2 -0.13,-2.96 -0.02,-0.09 -0.1,-0.14 -0.19,-0.13 -0.08,0.01 -0.14,0.09 -0.14,0.17 0,0.01 0,0.02 0,0.03 0.15,0.94 0.16,1.89 -0.02,2.82 -0.09,0.46 -0.21,0.91 -0.38,1.35 -0.16,0.44 -0.37,0.86 -0.6,1.27 -0.23,0.41 -0.5,0.79 -0.8,1.16 -0.29,0.36 -0.61,0.71 -0.96,1.02 -0.34,0.32 -0.71,0.61 -1.1,0.87 -0.39,0.26 -0.79,0.49 -1.21,0.67 -0.05,0.02 -0.11,0.04 -0.16,0.07l-0.16 0.06c-0.11,0.04 -0.22,0.08 -0.33,0.12 -0.22,0.07 -0.44,0.14 -0.66,0.19 -0.44,0.1 -0.88,0.13 -1.29,0.04 -0.2,-0.04 -0.4,-0.11 -0.58,-0.21 -0.19,-0.1 -0.36,-0.22 -0.51,-0.37 -0.07,-0.07 -0.14,-0.14 -0.2,-0.22 0.15,-0.07 0.3,-0.15 0.44,-0.23 0.22,-0.12 0.44,-0.25 0.65,-0.4 0.11,-0.07 0.21,-0.14 0.31,-0.22 0.1,-0.08 0.2,-0.15 0.3,-0.23 0.2,-0.16 0.39,-0.33 0.57,-0.5 0.18,-0.17 0.36,-0.36 0.52,-0.56 0.33,-0.39 0.61,-0.81 0.86,-1.23 0.26,-0.42 0.5,-0.85 0.73,-1.28 0.08,-0.15 0.16,-0.3 0.24,-0.44l0.05 -0c0.25,-0.02 0.5,-0.04 0.74,-0.07 0.49,-0.07 0.99,-0.2 1.46,-0.4 0.47,-0.2 0.91,-0.47 1.29,-0.83 0.09,-0.09 0.18,-0.19 0.26,-0.29 0.08,-0.1 0.16,-0.22 0.22,-0.33 0.07,-0.12 0.12,-0.25 0.17,-0.38 0.02,-0.07 0.04,-0.14 0.05,-0.22 0.01,-0.07 0.02,-0.15 0.01,-0.22 -0.01,-0.3 -0.1,-0.59 -0.27,-0.83 -0.09,-0.12 -0.19,-0.23 -0.32,-0.32 -0.06,-0.04 -0.13,-0.08 -0.21,-0.11 -0.07,-0.03 -0.15,-0.06 -0.23,-0.07 -0.08,-0.02 -0.16,-0.02 -0.24,-0.02 -0.02,0 -0.04,0 -0.06,0l-0.05 0.01c-0.04,0 -0.07,0.01 -0.11,0.01 -0.14,0.02 -0.28,0.06 -0.41,0.12 -0.26,0.11 -0.49,0.26 -0.69,0.43 -0.4,0.34 -0.71,0.74 -1,1.15 -0.28,0.41 -0.53,0.83 -0.78,1.25l-0.4 0.71c-0.07,0.01 -0.14,0.02 -0.22,0.02 -0.49,0.07 -0.98,0.17 -1.46,0.32 -0.48,0.15 -0.94,0.35 -1.38,0.6 -0.22,0.13 -0.43,0.27 -0.63,0.43 -0.2,0.16 -0.39,0.33 -0.56,0.52 -0.35,0.38 -0.64,0.81 -0.82,1.31 -0.02,0.06 -0.04,0.13 -0.06,0.19 -0.02,0.07 -0.04,0.13 -0.05,0.2 -0.01,0.03 -0.01,0.07 -0.02,0.1l-0.01 0.1c-0.01,0.03 -0.01,0.07 -0.01,0.11 -0,0.04 -0,0.07 -0,0.1 -0,0.26 0.02,0.52 0.07,0.79 0.02,0.09 0.04,0.18 0.07,0.26 -0.08,0.03 -0.17,0.06 -0.25,0.09 -0.22,0.07 -0.44,0.14 -0.66,0.19 -0.11,0.03 -0.22,0.05 -0.33,0.07 -0.06,0.01 -0.11,0.02 -0.17,0.03l-0.08 0.01 -0.03 0c-0.13,-0.14 -0.25,-0.29 -0.36,-0.45 -0.13,-0.19 -0.25,-0.39 -0.37,-0.59 -0.23,-0.41 -0.43,-0.83 -0.61,-1.27 -0.18,-0.43 -0.34,-0.88 -0.48,-1.32 -0.07,-0.22 -0.14,-0.45 -0.2,-0.67 -0.03,-0.11 -0.06,-0.23 -0.09,-0.34 -0.03,-0.11 -0.06,-0.22 -0.09,-0.34 -0.12,-0.45 -0.22,-0.91 -0.3,-1.37 -0.16,-0.92 -0.23,-1.85 -0.2,-2.78 0.02,-0.53 0.07,-1.06 0.16,-1.58 0.46,-0.68 0.97,-1.33 1.54,-1.92 0.64,-0.66 1.35,-1.25 2.13,-1.73 0.39,-0.24 0.79,-0.45 1.2,-0.61 0.1,-0.04 0.21,-0.08 0.31,-0.12l0.35 -0.13 0.35 -0.14c0.11,-0.05 0.23,-0.1 0.34,-0.15 0.46,-0.2 0.91,-0.43 1.34,-0.68 0.43,-0.26 0.86,-0.55 1.25,-0.88 0.4,-0.33 0.76,-0.7 1.09,-1.12 0.16,-0.21 0.31,-0.43 0.43,-0.67 0.12,-0.24 0.21,-0.49 0.29,-0.74 0.04,-0.13 0.08,-0.25 0.11,-0.38 0.02,-0.06 0.04,-0.15 0.05,-0.23 0.01,-0.08 0.02,-0.17 0.03,-0.25 0.02,-0.34 -0.08,-0.68 -0.23,-0.96 -0.16,-0.28 -0.37,-0.52 -0.62,-0.7 -0.24,-0.19 -0.52,-0.33 -0.82,-0.42 -0.15,-0.04 -0.31,-0.08 -0.47,-0.09 -0.08,-0.01 -0.17,-0.01 -0.24,-0.01 -0.07,0 -0.14,0 -0.21,0.01 -0.28,0.02 -0.55,0.06 -0.82,0.13 -0.53,0.14 -1.02,0.37 -1.48,0.65 -0.45,0.27 -0.87,0.59 -1.25,0.93 -0.19,0.17 -0.38,0.35 -0.55,0.53 -0.18,0.18 -0.35,0.37 -0.51,0.55 -0.33,0.38 -0.64,0.77 -0.93,1.17 -0.29,0.4 -0.56,0.81 -0.82,1.23 -0.52,0.84 -0.98,1.7 -1.41,2.58 -0.21,0.44 -0.41,0.89 -0.6,1.34 -0.09,0.23 -0.18,0.46 -0.26,0.7 -0.08,0.24 -0.15,0.48 -0.22,0.72 -0.07,0.24 -0.12,0.48 -0.18,0.73 -0.02,0.08 -0.03,0.15 -0.04,0.23 -0.05,0.07 -0.09,0.14 -0.13,0.22 -0.51,0.85 -0.94,1.75 -1.27,2.68 -0.33,0.94 -0.56,1.92 -0.62,2.92 -0.03,0.5 -0.02,1.01 0.04,1.52 0.03,0.25 0.08,0.5 0.15,0.75 0.03,0.12 0.07,0.25 0.11,0.37l0.03 0.09c0.01,0.03 0.01,0.06 0.02,0.1 0.01,0.03 0.02,0.06 0.03,0.09 0.01,0.03 0.02,0.06 0.04,0.09 0.19,0.48 0.47,0.94 0.81,1.34 0.34,0.4 0.76,0.73 1.21,1 0.45,0.26 0.94,0.45 1.43,0.58 0.49,0.13 1,0.2 1.5,0.24l0.01 0c0.02,0 0.03,0 0.05,-0 0.06,0.05 0.12,0.1 0.18,0.15 0.2,0.15 0.4,0.3 0.61,0.44 0.42,0.27 0.86,0.51 1.32,0.71 0.46,0.2 0.94,0.35 1.43,0.46 0.98,0.23 2,0.27 3,0.14 1,-0.13 1.99,-0.45 2.88,-0.94 0.45,-0.24 0.87,-0.53 1.27,-0.85 0.4,-0.32 0.76,-0.68 1.1,-1.07 0.67,-0.78 1.19,-1.68 1.55,-2.64 0.35,-0.96 0.53,-1.99 0.53,-3.02 0,-1.02 -0.16,-2.05 -0.53,-3.02z"/>
  <path class="fil1" d="M15.52 13.51c-0.02,0 -0.04,0 -0.06,0l0 0 -0.05 0.01c-0.04,0 -0.07,0.01 -0.11,0.01l0 0c-0.14,0.02 -0.28,0.06 -0.41,0.12l0 0c-0.26,0.11 -0.49,0.26 -0.69,0.43l0 0c-0.4,0.34 -0.71,0.74 -1,1.15l0 0c-0.28,0.41 -0.53,0.83 -0.78,1.25l0 0 -0.4 0.71c-0.07,0.01 -0.14,0.02 -0.22,0.02l0 0c-0.49,0.07 -0.98,0.17 -1.46,0.32l0 0c-0.48,0.15 -0.94,0.35 -1.38,0.6l0 0c-0.22,0.13 -0.43,0.27 -0.63,0.43l0 0c-0.2,0.16 -0.39,0.33 -0.56,0.52l0 0c-0.35,0.38 -0.64,0.81 -0.82,1.31l0 0c-0.02,0.06 -0.04,0.13 -0.06,0.19l0 0c-0.02,0.07 -0.04,0.13 -0.05,0.2l0 0c-0.01,0.03 -0.01,0.07 -0.02,0.1l0 0 -0.01 0.1c-0.01,0.03 -0.01,0.07 -0.01,0.11l0 0c-0,0.04 -0,0.07 -0,0.1l0 0c-0,0.26 0.02,0.52 0.07,0.79l0 0c0.02,0.09 0.04,0.18 0.07,0.26l0 0c-0.08,0.03 -0.17,0.06 -0.25,0.09l0 0c-0.22,0.07 -0.44,0.14 -0.66,0.19l0 0c-0.03,0.01 -0.06,0.01 -0.09,0.02 0.01,0.13 0.05,0.26 0.12,0.38l0 0c0.1,0.15 0.23,0.27 0.38,0.35l0 0c0.18,-0.05 0.35,-0.1 0.52,-0.16l0 0c0.11,-0.04 0.22,-0.08 0.33,-0.12l0 0c0.1,0.15 0.21,0.3 0.34,0.43l0 0c0.19,0.2 0.41,0.36 0.65,0.5l0 0c0.24,0.14 0.5,0.24 0.77,0.3l0 0c0.05,0.01 0.1,0.02 0.15,0.03l0 0c0.01,-0 0.03,-0 0.04,-0.01l0 0c0.01,0 0.01,0.01 0.02,0.01l0 0c0.01,0 0.01,0.01 0.02,0.01l0 0c0.19,0.03 0.39,0.03 0.58,0.03l0 0c0.27,-0.01 0.53,-0.05 0.78,-0.11l0 0c0.25,-0.06 0.5,-0.13 0.74,-0.21l0 0c0.12,-0.04 0.24,-0.09 0.35,-0.13l0 0 0.17 -0.07c0.06,-0.03 0.12,-0.05 0.18,-0.08l0 0c0.93,-0.42 1.75,-1.01 2.47,-1.7l0 0c0.72,-0.69 1.34,-1.49 1.82,-2.37l0 0c0.48,-0.88 0.81,-1.84 0.95,-2.83l0 0c0.14,-0.99 0.09,-2 -0.13,-2.96l0 0c-0.02,-0.09 -0.1,-0.14 -0.19,-0.13l0 0c-0.08,0.01 -0.14,0.09 -0.14,0.17l0 0c0,0.01 0,0.02 0,0.03l0 0c0.15,0.94 0.16,1.89 -0.02,2.82l0 0c-0.09,0.46 -0.21,0.91 -0.38,1.35l0 0c-0.16,0.44 -0.37,0.86 -0.6,1.27l0 0c-0.23,0.41 -0.5,0.79 -0.8,1.16l0 0c-0.29,0.36 -0.61,0.71 -0.96,1.02l0 0c-0.34,0.32 -0.71,0.61 -1.1,0.87l0 0c-0.39,0.26 -0.79,0.49 -1.21,0.67l0 0c-0.05,0.02 -0.11,0.04 -0.16,0.07l0 0 -0.16 0.06c-0.11,0.04 -0.22,0.08 -0.33,0.12l0 0c-0.22,0.07 -0.44,0.14 -0.66,0.19l0 0c-0.44,0.1 -0.88,0.13 -1.29,0.04l0 0c-0.2,-0.04 -0.4,-0.11 -0.58,-0.21l0 0c-0.19,-0.1 -0.36,-0.22 -0.51,-0.37l0 0c-0.07,-0.07 -0.14,-0.14 -0.2,-0.22l0 0c0.15,-0.07 0.3,-0.15 0.44,-0.23l0 0c0.22,-0.12 0.44,-0.25 0.65,-0.4l0 0c0.11,-0.07 0.21,-0.14 0.31,-0.22l0 0c0.1,-0.08 0.2,-0.15 0.3,-0.23l0 0c0.2,-0.16 0.39,-0.33 0.57,-0.5l0 0c0.18,-0.17 0.36,-0.36 0.52,-0.56l0 0c0.33,-0.39 0.61,-0.81 0.86,-1.23l0 0c0.26,-0.42 0.5,-0.85 0.73,-1.28l0 0c0.08,-0.15 0.16,-0.3 0.24,-0.44l0 0 0.05 -0c0.25,-0.02 0.5,-0.04 0.74,-0.07l0 0c0.49,-0.07 0.99,-0.2 1.46,-0.4l0 0c0.47,-0.2 0.91,-0.47 1.29,-0.83l0 0c0.09,-0.09 0.18,-0.19 0.26,-0.29l0 0c0.08,-0.1 0.16,-0.22 0.22,-0.33l0 0c0.07,-0.12 0.12,-0.25 0.17,-0.38l0 0c0.02,-0.07 0.04,-0.14 0.05,-0.22l0 0c0.01,-0.07 0.02,-0.15 0.01,-0.22l0 0c-0.01,-0.3 -0.1,-0.59 -0.27,-0.83l0 0c-0.09,-0.12 -0.19,-0.23 -0.32,-0.32l0 0c-0.06,-0.04 -0.13,-0.08 -0.21,-0.11l0 0c-0.07,-0.03 -0.15,-0.06 -0.23,-0.07l0 0c-0.07,-0.01 -0.14,-0.02 -0.21,-0.02l0 0c-0.01,0 -0.02,0 -0.02,0zm-1.83 2.05c0.26,-0.39 0.54,-0.77 0.87,-1.06l0 0c0.17,-0.14 0.34,-0.27 0.53,-0.34l0 0c0.1,-0.04 0.19,-0.06 0.29,-0.08l0 0c0.02,-0 0.05,-0.01 0.07,-0.01l0 0 0.04 -0c0.01,-0 0.02,0 0.03,-0l0 0c0.04,-0 0.08,0 0.12,0.01l0 0c0.16,0.03 0.31,0.13 0.43,0.28l0 0c0.11,0.15 0.18,0.34 0.19,0.52l0 0c0,0.05 -0,0.09 -0.01,0.14l0 0c-0.01,0.05 -0.02,0.09 -0.03,0.14l0 0c-0.03,0.1 -0.07,0.19 -0.12,0.28l0 0c-0.05,0.09 -0.11,0.18 -0.18,0.27l0 0c-0.07,0.09 -0.14,0.17 -0.22,0.25l0 0c-0.32,0.31 -0.71,0.56 -1.13,0.74l0 0c-0.42,0.18 -0.87,0.3 -1.33,0.37l0 0c-0.15,0.02 -0.31,0.04 -0.46,0.06l0 0c0.29,-0.54 0.58,-1.07 0.91,-1.57zm-6.22 6.28c-0.05,-0.21 -0.08,-0.43 -0.09,-0.65l0 0c-0,-0.03 -0,-0.05 -0,-0.08l0 0c0,-0.02 -0,-0.05 0,-0.08l0 0 0.01 -0.08c0,-0.03 0.01,-0.05 0.01,-0.08l0 0c0.01,-0.05 0.02,-0.1 0.03,-0.16l0 0c0.01,-0.05 0.03,-0.1 0.04,-0.16l0 0c0.13,-0.42 0.37,-0.81 0.68,-1.15l0 0c0.15,-0.17 0.32,-0.33 0.5,-0.47l0 0c0.18,-0.14 0.37,-0.27 0.57,-0.39l0 0c0.4,-0.23 0.83,-0.42 1.27,-0.56l0 0c0.4,-0.13 0.82,-0.22 1.24,-0.28l0 0 -0.02 0.04c-0.24,0.42 -0.48,0.83 -0.74,1.23l0 0c-0.26,0.4 -0.53,0.78 -0.83,1.13l0 0c-0.15,0.17 -0.31,0.33 -0.48,0.49l0 0c-0.17,0.16 -0.34,0.31 -0.53,0.45l0 0c-0.09,0.07 -0.19,0.14 -0.28,0.21l0 0c-0.1,0.06 -0.19,0.13 -0.29,0.19l0 0c-0.19,0.13 -0.39,0.24 -0.6,0.35l0 0c-0.15,0.08 -0.29,0.15 -0.44,0.22l0 0c-0.02,-0.05 -0.03,-0.11 -0.05,-0.16l0 0z"/>
 </g>
</svg>
